<?xml version="1.0" encoding="utf-8"?>
<!DOCTYPE svg PUBLIC "-//W3C//DTD SVG 1.0//EN" "http://www.w3.org/TR/2001/REC-SVG-20010904/DTD/svg10.dtd">
<svg version="1.0" xmlns="http://www.w3.org/2000/svg" width="225px" height="225px" viewBox="0 0 225 225" preserveAspectRatio="xMidYMid meet">
 <g fill="#ffffff">
  <path d="M0 112.50 l0 -112.50 112.50 0 112.50 0 0 112.50 0 112.50 -112.50 0 -112.50 0 0 -112.50z m130.05 69.55 c0.95 0.05 2.10 -0.10 2.60 -0.30 0.45 -0.20 1.55 -0.25 2.35 -0.15 1 0.15 1.50 0 1.50 -0.45 0 -0.45 0.65 -0.65 2 -0.65 1.10 0 2 -0.20 2 -0.50 0 -0.25 0.90 -0.50 2 -0.50 1.65 0 2 -0.15 2 -1 0 -0.80 0.35 -1 1.75 -1 1.40 0 1.75 -0.20 1.75 -1 0 -0.85 0.35 -1 2 -1 1.90 0 2 -0.10 2 -1.50 0 -1.35 0.15 -1.50 1.50 -1.50 1.25 0 1.50 -0.20 1.50 -1.25 0 -1 0.25 -1.25 1.25 -1.25 1.10 0 1.25 -0.20 1.25 -1.75 0 -1.55 0.15 -1.75 1.25 -1.75 1.10 0 1.25 -0.20 1.25 -1.75 0 -1.50 0.15 -1.75 1.15 -1.75 1 0 1.10 -0.20 0.95 -2 -0.20 -1.75 -0.10 -2 0.85 -2 0.90 0 1.05 -0.30 1.05 -1.95 l0 -1.90 3.40 -0.30 c1.85 -0.20 6.40 -0.35 10.10 -0.40 3.70 0 7.75 -0.20 9 -0.35 l2.25 -0.35 -1.20 -0.85 c-0.95 -0.70 -1.85 -0.80 -4.15 -0.55 l-2.90 0.30 -0.05 -7.20 c0 -12.60 -2.50 -20.95 -9.30 -31.45 -4.05 -6.20 -17.65 -18 -20.70 -18 -0.55 0 -0.95 -0.35 -0.95 -0.75 0 -0.50 -0.50 -0.75 -1.60 -0.75 -0.90 0 -3.05 -0.50 -4.75 -1.10 -3 -1.10 -3.15 -1.20 -3.15 -2.75 0 -1.45 0.15 -1.65 1.35 -1.65 2.20 0 8.15 2.05 8.15 2.80 0 0.40 0.35 0.70 0.80 0.70 0.65 0 0.70 -0.35 0.35 -2.10 -0.40 -2.15 -0.45 -6.25 -0.10 -13.65 0.15 -3.65 0.05 -4.25 -1.30 -6.70 -1.55 -2.80 -3.85 -5 -6.75 -6.40 -1.80 -0.85 -3.70 -1.35 -35.25 -9.40 -10.45 -2.65 -22.50 -5.70 -26.75 -6.80 -14.35 -3.75 -31.10 -7.95 -31.55 -7.95 -0.65 0 -0.55 4.65 0.10 6.35 1 2.75 3.10 5.10 6.25 7.20 1.80 1.15 3.45 2.50 3.70 3 0.70 1.25 0.60 7.55 -0.15 8.45 -0.35 0.45 -2.40 2.15 -4.60 3.85 -9.45 7.15 -12.10 11.40 -15.45 24.90 -1.05 4.15 -2.20 8.45 -2.60 9.65 -1.05 3.25 -0.90 5.95 0.55 8.40 1.70 2.90 2.75 3.50 12 7.25 4.35 1.75 8.65 3.65 9.50 4.20 2.15 1.45 3.75 4.90 3.75 8.05 0 2.10 0.25 2.95 1.30 4.15 1.20 1.45 1.55 1.55 4.45 1.55 3.45 0 3.75 -0.25 3.75 -3.30 0 -1.60 0.10 -1.70 1.75 -1.70 l1.75 0 0 2.50 0 2.50 4.45 0 c3.35 0 4.50 0.15 4.70 0.70 0.15 0.40 0.90 1 1.70 1.40 1.40 0.65 1.40 0.75 1.40 5.05 0 2.40 0.15 4.35 0.40 4.35 0.20 0 0.35 0.85 0.35 1.95 0 1.55 -0.25 2.10 -1.35 2.85 -1.25 0.85 -2.75 1 -12.90 1.20 -10.45 0.25 -11.50 0.35 -11.65 1.15 -0.15 0.80 0.70 0.85 12.25 0.85 6.80 0 13.25 0.15 14.30 0.30 1.75 0.30 1.85 0.40 1.85 2.25 0 1.60 0.15 1.95 1 1.95 0.80 0 1 0.35 1 1.75 0 1.40 0.20 1.75 1 1.75 0.80 0 1 0.35 1 1.75 0 1.60 0.10 1.75 1.50 1.75 1.35 0 1.50 0.15 1.50 1.50 0 1.35 0.15 1.50 1.50 1.50 1.35 0 1.50 0.15 1.50 1.50 0 1.35 0.15 1.50 1.50 1.50 1.25 0 1.50 0.20 1.50 1.25 0 1.10 0.20 1.25 1.75 1.25 1.40 0 1.75 0.20 1.75 1 0 0.80 0.35 1 1.75 1 1.35 0 1.75 0.20 1.75 0.90 0 0.70 0.35 0.85 2 0.70 1.70 -0.20 2 -0.05 2 0.75 0 0.75 0.30 0.90 2.25 0.75 1.70 -0.15 2.25 -0.05 2.25 0.55 0 0.45 0.40 0.65 1.15 0.50 0.60 -0.10 2.55 0 4.35 0.25 1.80 0.20 3.40 0.20 3.55 -0.05 0.20 -0.25 1.10 -0.40 2 -0.30z"/>
  <path d="M168.50 152.10 c0 -0.25 -0.60 -0.75 -1.30 -1.10 -1.25 -0.70 -1.25 -0.80 -0.90 -4.50 0.15 -2.05 0.60 -3.90 0.90 -4.10 0.40 -0.30 0.35 -0.40 -0.05 -0.40 -0.40 0 -0.65 -0.70 -0.65 -1.90 0 -1.55 0.25 -2.05 1.25 -2.60 0.70 -0.35 1.25 -1.10 1.25 -1.60 0 -0.80 0.45 -0.90 3.75 -0.90 l3.75 0 0 8.75 0 8.75 -4 0 c-2.20 0 -4 -0.20 -4 -0.40z"/>
  <path d="M73 127.70 c0 -1.75 1.05 -5.20 1.60 -5.20 0.20 0 0.40 -0.55 0.40 -1.25 0 -0.70 0.25 -1.25 0.50 -1.25 0.30 0 0.50 -0.45 0.50 -1 0 -0.55 0.25 -1 0.50 -1 0.30 0 0.50 -0.35 0.50 -0.80 0 -0.95 2 -4.70 2.55 -4.70 0.20 0 0.50 -0.55 0.65 -1.25 0.20 -0.70 0.65 -1.25 1.05 -1.25 0.40 0 0.75 -0.45 0.75 -0.95 0 -0.55 0.50 -1.40 1.15 -1.90 0.65 -0.50 1.30 -1.30 1.50 -1.75 0.15 -0.50 0.65 -0.90 1.10 -0.90 0.40 0 0.75 -0.30 0.75 -0.65 0 -0.80 2.55 -3.35 3.35 -3.35 0.30 0 0.65 -0.35 0.85 -0.75 0.15 -0.45 0.95 -0.75 2.05 -0.75 1.50 0 1.75 -0.15 1.75 -1.20 0 -1.25 1.80 -2.80 3.25 -2.80 0.40 0 0.75 -0.20 0.75 -0.50 0 -0.25 0.80 -0.50 1.75 -0.50 1.65 0 1.75 0.10 1.75 1.75 0 1.20 -0.25 1.75 -0.70 1.75 -0.40 0 -1.35 0.55 -2.10 1.25 -0.90 0.80 -1.95 1.25 -3 1.25 -1.50 0 -1.70 0.15 -1.70 1.25 0 0.75 -0.35 1.40 -0.85 1.60 -0.45 0.20 -1.50 1.10 -2.30 2 -0.80 0.90 -1.75 1.65 -2.15 1.65 -0.40 0 -0.70 0.35 -0.70 0.75 0 0.35 -0.30 0.90 -0.60 1.10 -0.35 0.20 -0.90 0.85 -1.20 1.40 -0.30 0.55 -1 1.20 -1.60 1.50 -0.60 0.25 -1.10 0.85 -1.10 1.35 0 0.45 -0.30 1.15 -0.60 1.50 -0.35 0.35 -1.20 1.75 -1.90 3.05 -0.65 1.30 -1.40 2.35 -1.60 2.35 -0.25 0 -0.40 0.45 -0.40 1 0 0.55 -0.20 1 -0.50 1 -0.25 0 -0.50 0.45 -0.50 1 0 0.55 -0.20 1 -0.50 1 -0.25 0 -0.50 0.35 -0.50 0.80 0 0.45 -0.25 1.70 -0.60 2.75 -0.50 1.75 -0.70 1.95 -2.25 1.95 -1.45 0 -1.65 -0.15 -1.65 -1.30z"/>
  <path d="M61.35 114.25 c-3.55 -1.45 -7 -3.20 -7.70 -3.85 -1.85 -1.65 -2.65 -3.95 -2.65 -7.35 0 -2.60 0.60 -4.45 4.30 -13.75 4.65 -11.75 5.35 -12.75 9.35 -13.85 2.60 -0.70 6 -0.35 10.60 1.05 1.95 0.60 5.70 1.80 8.40 2.60 l4.85 1.55 0 1.70 c0 1.55 -3.90 9.60 -14.30 29.40 -2.60 4.95 -2.65 5 -4.55 5.10 -1.35 0.05 -3.85 -0.70 -8.30 -2.60z"/>
  <path d="M104.50 92.80 c0 -1.60 0.10 -1.70 3.45 -2.75 1.90 -0.60 4.60 -1.20 6 -1.40 l2.55 -0.30 0 1.85 c0 1.45 -0.20 1.80 -1 1.80 -0.55 0 -2.45 0.55 -4.30 1.25 -1.80 0.70 -4.10 1.25 -5 1.25 -1.60 0 -1.70 -0.10 -1.70 -1.70z"/>
  <path d="M132.50 89.25 c0 -1.65 0.10 -1.75 1.75 -1.75 1.65 0 1.75 0.10 1.75 1.75 0 1.65 -0.10 1.75 -1.75 1.75 -1.65 0 -1.75 -0.10 -1.75 -1.75z"/>
 </g>
 <g fill="#dedad7">
  <path d="M122.50 186.25 c-0.30 -0.85 -0.65 -1.85 -0.80 -2.25 -0.20 -0.55 -0.70 -0.25 -1.90 1.20 l-1.65 1.90 -0.35 -1.60 c-0.45 -2.30 -0.40 -2.50 0.45 -2.50 0.40 0 0.75 -0.20 0.75 -0.50 0 -0.30 1.75 -0.50 4.25 -0.50 3.90 0 4.25 0.10 4.25 1 0 0.55 0.35 1 0.75 1 0.40 0 0.75 -0.20 0.75 -0.50 0 -0.25 0.80 -0.50 1.75 -0.50 1.15 0 1.75 0.25 1.75 0.70 0 0.35 0.15 1.40 0.30 2.25 0.45 2.15 -0.35 1.95 -1.75 -0.55 l-1.20 -2.15 -0.90 2.15 c-0.50 1.15 -1.10 2.10 -1.35 2.10 -0.20 0 -0.70 -0.80 -1.05 -1.75 -0.35 -0.95 -0.80 -1.75 -1 -1.75 -0.20 0 -0.85 0.85 -1.40 1.85 l-1.10 1.90 -0.55 -1.50z"/>
  <path d="M135.80 185.25 c-0.45 -0.70 -0.60 -1.25 -0.30 -1.25 0.25 0 0.50 -0.45 0.50 -1 0 -0.55 0.35 -1 0.75 -1 0.40 0 0.75 -0.20 0.75 -0.50 0 -0.25 0.70 -0.50 1.50 -0.50 1.15 0 1.50 -0.20 1.50 -1 0 -0.80 0.35 -1 1.75 -1 0.95 0 1.75 0.25 1.75 0.50 0 0.30 0.30 0.50 0.70 0.50 0.70 0 1.65 2.80 1.15 3.30 -0.15 0.15 -0.85 -0.30 -1.60 -1 -1.60 -1.50 -2.25 -1.65 -2.25 -0.55 0 0.40 -0.20 0.75 -0.50 0.75 -0.25 0 -0.50 0.50 -0.50 1.15 -0.05 1.05 -0.05 1.05 -1.25 -0.25 -0.65 -0.80 -1.30 -1.40 -1.45 -1.40 -0.15 0 -0.40 1 -0.60 2.25 -0.35 2.55 -0.75 2.75 -1.90 1z"/>
  <path d="M113.55 183.95 c-0.80 -2.30 -0.70 -2.95 0.45 -2.95 0.55 0 1 0.20 1 0.45 0 0.25 0.50 0.55 1.15 0.65 1.05 0.15 1.05 0.20 -0.45 1.80 l-1.60 1.65 -0.55 -1.60z"/>
  <path d="M109 181.70 l0 -2.25 -1.40 1 c-1.85 1.30 -2.85 0.70 -2.35 -1.40 0.30 -1.40 1.75 -2.25 1.75 -1.05 0 0.30 0.55 0.50 1.25 0.50 0.90 0 1.25 0.25 1.25 1 0 0.55 0.35 1 0.75 1 0.90 0 1 2.05 0.15 2.90 -1.05 1.05 -1.40 0.65 -1.40 -1.70z"/>
  <path d="M147.65 179.80 c-1.90 -1.20 -2.10 -1.80 -0.65 -1.80 0.80 0 1 -0.35 1 -1.50 0 -1.40 0.15 -1.50 1.75 -1.50 1.55 0 1.75 -0.15 1.75 -1.25 0 -1.05 0.25 -1.25 1.50 -1.25 1.35 0 1.50 -0.15 1.50 -1.50 0 -1.40 0.10 -1.50 2 -1.50 1.15 0 2 0.25 2 0.55 0 0.40 0.20 0.45 0.65 0 0.55 -0.40 0.85 -0.25 1.30 0.75 0.75 1.65 0.55 1.85 -1.15 1.20 -2.35 -0.85 -2.80 -0.70 -2.45 1.05 0.30 1.55 0.30 1.55 -1.50 1.35 -1.70 -0.20 -1.75 -0.15 -2.05 1.75 -0.25 1.60 -0.50 1.90 -1.20 1.60 -2.10 -0.90 -2.55 -0.85 -2.30 0.10 0.15 0.50 0.05 1.40 -0.15 1.95 l-0.40 1.05 -1.60 -1.05z"/>
  <path d="M101.15 178.65 c0.55 -2.05 0.85 -3.65 0.65 -3.65 -0.10 0 -1 0.35 -2 0.75 -1.80 0.75 -1.80 0.75 -1.80 -0.55 0 -1.45 0.80 -3.20 1.50 -3.20 0.30 0 0.50 0.35 0.50 0.75 0 0.45 0.45 0.75 1.05 0.75 1.30 0 2.45 1.15 2.45 2.45 0 0.60 0.25 1.05 0.50 1.05 0.95 0 0.50 0.80 -0.95 1.65 -1.85 1.05 -2.20 1.05 -1.90 0z"/>
  <path d="M94 173.25 c0 -0.10 0.25 -0.75 0.55 -1.40 0.40 -0.95 0.80 -1.10 2 -0.95 1.95 0.30 1.85 1 -0.30 1.90 -1.80 0.75 -2.25 0.85 -2.25 0.45z"/>
  <path d="M91 169.80 c0 -0.15 0.45 -1 1 -1.90 1.40 -2.35 1.30 -2.55 -1.25 -2.20 -1.25 0.20 -2.25 0.20 -2.25 0.05 0 -0.20 0.60 -1.10 1.30 -2.05 l1.30 -1.70 -2.30 0 c-1.25 0 -2.30 -0.15 -2.30 -0.40 0 -0.20 0.60 -1 1.30 -1.75 0.70 -0.80 1.15 -1.55 0.95 -1.75 -0.20 -0.20 -4.05 -0.45 -8.55 -0.55 -7.65 -0.15 -8.20 -0.20 -8.20 -1.10 0 -0.90 0.45 -0.95 6.20 -0.95 7.55 0 10.80 0.40 10.80 1.30 0 0.40 0.25 0.70 0.50 0.70 0.30 0 0.50 0.55 0.50 1.25 0 1 0.25 1.25 1.25 1.25 1.10 0 1.25 0.20 1.25 1.70 0 1.40 -0.20 1.75 -1.10 1.95 -0.65 0.10 -0.10 0.25 1.25 0.30 2.20 0.05 2.35 0.15 2.35 1.45 0 0.75 0.15 1.85 0.30 2.40 0.25 0.85 0 1.15 -1.15 1.40 -0.75 0.20 -1.80 0.45 -2.25 0.60 -0.50 0.15 -0.90 0.15 -0.90 0z"/>
  <path d="M161.40 168.40 c-2.35 -0.60 -2.55 -1.90 -0.35 -1.90 1.45 0 2.90 1.05 2.95 2.15 0 0.40 -0.15 0.40 -2.60 -0.25z"/>
  <path d="M164.90 164.65 c-0.60 -0.15 -0.90 -0.70 -0.90 -1.50 l0 -1.30 1.25 1.15 c1.20 1.15 1.65 2.05 0.90 1.95 -0.25 -0.05 -0.80 -0.15 -1.25 -0.30z"/>
  <path d="M60.50 157 c0 -0.80 0.35 -1 1.50 -1 1.80 0 2.05 1.25 0.40 1.70 -1.75 0.45 -1.90 0.40 -1.90 -0.70z"/>
  <path d="M67.50 156.50 c0 -0.85 0.35 -1 2 -1 1.65 0 2 0.15 2 1 0 0.85 -0.35 1 -2 1 -1.65 0 -2 -0.15 -2 -1z"/>
  <path d="M167 155.50 c0 -0.85 0.35 -1 2.25 -1 2.45 0 3.20 1.15 1.15 1.70 -2.25 0.60 -3.40 0.35 -3.40 -0.70z"/>
  <path d="M177.50 155 c0 -0.95 0.35 -1 5.25 -1 4.15 0 5.25 0.15 5.25 0.70 0 0.95 -1.60 1.30 -6.35 1.30 -3.80 0 -4.15 -0.10 -4.15 -1z"/>
  <path d="M189.90 155.65 c-0.55 -0.15 -0.90 -0.70 -0.90 -1.35 0 -1.30 -1.45 -1.80 -5.30 -1.80 l-2.20 0 0.05 -1.85 c0.05 -1.05 0.20 -1.45 0.30 -0.85 0.20 0.90 0.50 1 3.15 0.80 2.85 -0.20 3.05 -0.15 4.75 1.55 2.30 2.30 2.35 4 0.15 3.50z"/>
  <path d="M60.60 153.65 c0.15 -0.80 1.05 -0.90 8.80 -1.05 8.35 -0.10 8.60 -0.10 8.60 0.90 0 0.95 -0.30 1 -8.80 1 -8.10 0 -8.75 -0.05 -8.60 -0.85z"/>
  <path d="M173.50 151.75 c0 -0.40 0.35 -0.75 0.75 -0.75 0.65 0 0.75 -1.15 0.75 -7.25 l0 -7.25 -2.35 0.05 c-1.35 0 -2.10 0.15 -1.75 0.30 1 0.40 0.70 0.85 -1.15 1.85 -0.95 0.55 -1.75 1.10 -1.75 1.30 0 0.20 0.95 0.75 2.15 1.20 l2.10 0.85 -2 1.05 c-2.55 1.30 -2.60 1.35 -1.75 1.90 0.60 0.40 0.50 0.50 -0.35 0.50 -0.95 0 -1.15 -0.25 -1.15 -1.55 0 -0.95 0.35 -1.85 0.90 -2.25 0.80 -0.65 0.80 -0.65 0 -0.70 -1 0 -1.05 -0.60 -0.60 -4.20 l0.35 -2.30 2.65 0 c3.20 0 3.20 0 1.35 -5.35 -1.35 -4 -4.65 -10.70 -5.65 -11.65 -0.15 -0.15 -0.85 -1.05 -1.50 -2 -2.10 -3.15 -11.55 -12 -12.80 -12 -0.20 0 -1.10 -0.60 -2.05 -1.30 -3.25 -2.45 -11.10 -5.10 -18.50 -6.20 -4.45 -0.65 -9.50 -0.25 -15.15 1.30 -4.60 1.25 -9.50 3.60 -14.50 6.90 -10.75 7.15 -19.45 20.45 -20.85 31.95 l-0.25 1.85 -4.70 0 -4.70 0 0 -2.25 c0 -2.40 0.55 -5.05 2.10 -10.25 1.15 -3.80 4.35 -11 4.90 -11 0.20 0 0.50 -0.50 0.70 -1.10 0.25 -1.05 1.65 -3 3.55 -4.95 0.40 -0.45 0.75 -0.95 0.75 -1.15 0 -0.35 7.45 -7.80 7.80 -7.80 0.05 0 0.90 -0.70 1.80 -1.50 0.90 -0.85 1.90 -1.50 2.25 -1.50 0.35 0 0.65 -0.15 0.65 -0.40 0 -0.20 0.40 -0.60 0.95 -0.85 0.50 -0.30 2.30 -1.25 3.95 -2.10 1.70 -0.90 3.55 -1.65 4.10 -1.65 0.55 0 1 -0.20 1 -0.50 0 -0.25 0.55 -0.50 1.25 -0.50 0.70 0 1.25 -0.20 1.25 -0.40 0 -0.20 2.20 -0.95 4.90 -1.60 4.30 -1.10 5.95 -1.25 14.10 -1.25 8 0.05 9.90 0.20 14 1.20 2.60 0.65 4.85 1.30 5 1.50 0.15 0.15 1.20 0.55 2.40 0.85 l2.15 0.60 -0.30 -3.20 c-0.30 -2.70 -0.25 -3.20 0.40 -3.20 0.75 0 1.35 2.05 2.15 7.50 0.30 2.15 0.50 2.35 3.85 4.50 4.60 2.95 13.25 11.30 15.95 15.50 4.55 7 7.25 13.40 8.65 20.75 1 5 1.10 4.75 -1.75 4.75 l-2.50 0 0 7.25 0 7.25 -1.75 0 c-1.20 0 -1.75 -0.25 -1.75 -0.75z m-83.70 -48.35 l1.45 -1.65 -1.60 1.45 c-1.55 1.40 -1.90 1.80 -1.50 1.80 0.10 0 0.80 -0.75 1.65 -1.60z"/>
  <path d="M168 151.50 c0 -0.25 -0.30 -0.50 -0.70 -0.50 -0.85 0 -1.30 -1.05 -1.30 -2.95 0 -1.15 0.30 -1.50 1.75 -1.90 1.85 -0.60 3.75 -0.35 3.75 0.40 0 0.30 -0.30 0.60 -0.60 0.70 -0.35 0.10 -1.30 0.45 -2.15 0.75 l-1.50 0.55 1.40 0.85 c0.75 0.45 1.35 1 1.35 1.20 0 0.25 0.35 0.40 0.75 0.40 0.40 0 0.75 0.25 0.75 0.50 0 0.30 -0.80 0.50 -1.75 0.50 -0.95 0 -1.75 -0.20 -1.75 -0.50z"/>
  <path d="M85.65 150.95 c1.35 -0.80 1 -1.35 -1.25 -2 -2.10 -0.55 -2.10 -0.55 -1.10 -1.40 0.60 -0.45 1.50 -1.05 2 -1.40 0.90 -0.60 0.90 -0.65 0.10 -1.15 -1.40 -0.85 -1.05 -1.50 0.85 -1.50 1.65 0 1.75 0.10 1.75 1.75 0 1.55 -0.15 1.75 -1.25 1.75 -0.70 0 -1.25 0.25 -1.25 0.50 0 0.30 0.70 0.50 1.50 0.50 1.40 0 1.50 0.15 1.50 1.75 0 1.70 -0.05 1.75 -1.85 1.75 -1.55 -0.05 -1.75 -0.15 -1 -0.55z"/>
  <path d="M84.10 140 c-0.60 -0.25 -1.25 -0.80 -1.40 -1.25 -0.20 -0.40 -0.60 -0.75 -1 -0.75 -0.40 0 -0.70 -0.45 -0.70 -1 0 -0.85 0.35 -1 2.25 -1 l2.25 0 0 2.25 c0 1.25 -0.05 2.25 -0.10 2.20 -0.10 0 -0.65 -0.20 -1.30 -0.45z"/>
  <path d="M62.25 137 c-0.90 -1 -0.85 -1 0.90 -1 1.50 0 1.85 0.20 1.85 1 0 0.65 -0.35 1 -0.90 1 -0.55 0 -1.35 -0.45 -1.85 -1z"/>
  <path d="M60.05 129.15 c-0.35 -1.05 -0.75 -2.20 -0.85 -2.50 -0.20 -0.45 0.15 -0.65 0.95 -0.65 1.30 0 1.85 1 1.85 3.65 0 2 -1.25 1.70 -1.95 -0.50z"/>
  <path d="M53.65 122.70 c-3.05 -1.35 -3.40 -2.20 -0.90 -2.20 0.95 0 1.75 0.25 1.75 0.50 0 0.30 0.55 0.50 1.25 0.50 1 0 1.25 0.25 1.25 1.25 0 1.50 -0.05 1.50 -3.35 -0.05z"/>
  <path d="M37.50 115.50 l-1.75 -1.45 1.90 -0.05 c1.75 0 1.85 0.10 1.85 1.50 0 0.85 -0.05 1.50 -0.15 1.50 -0.05 0 -0.90 -0.65 -1.85 -1.50z"/>
  <path d="M66 115.25 c0 -1.20 0.05 -1.25 1.60 -0.60 2.30 0.95 2.40 1.85 0.20 1.85 -1.60 0 -1.80 -0.15 -1.80 -1.25z"/>
  <path d="M61 113.25 c0 -1.20 0.05 -1.25 1.60 -0.60 2.30 0.95 2.40 1.85 0.20 1.85 -1.60 0 -1.80 -0.15 -1.80 -1.25z"/>
  <path d="M71 113.70 c0 -0.70 4.20 -8.20 4.60 -8.20 0.20 0 0.40 0.80 0.40 1.75 0 0.95 -0.20 1.75 -0.50 1.75 -0.25 0 -0.50 0.45 -0.50 0.95 0 0.55 -0.35 1.30 -0.75 1.75 -0.40 0.40 -0.75 1.10 -0.75 1.50 0 0.50 -0.45 0.80 -1.25 0.80 -0.70 0 -1.25 -0.15 -1.25 -0.30z"/>
  <path d="M55.40 111.90 c-0.40 -0.35 -1.15 -0.90 -1.65 -1.20 -0.60 -0.30 -1.05 -1.20 -1.15 -2.15 -0.10 -0.95 -0.45 -1.55 -0.90 -1.55 -0.45 0 -0.70 -0.55 -0.70 -1.75 0 -2.20 1.30 -2.40 1.75 -0.25 0.45 2.05 2.45 4.30 4.80 5.55 1.10 0.55 1.95 1.20 1.95 1.45 0 0.70 -3.30 0.60 -4.10 -0.10z"/>
  <path d="M33.80 105.65 c0.45 -3.40 1.35 -5.80 2.15 -6.05 0.55 -0.20 0.65 0.25 0.35 2.20 -0.75 5.75 -0.85 6.20 -1.90 6.20 -0.85 0 -0.95 -0.25 -0.60 -2.35z"/>
  <path d="M52 98.25 c0 -0.95 0.25 -1.75 0.50 -1.75 0.30 0 0.50 -0.40 0.50 -0.85 0 -1.20 1.15 -4.15 1.60 -4.15 0.20 0 0.40 -0.55 0.40 -1.25 0 -1 0.25 -1.25 1.25 -1.25 l1.20 0 -1.20 3.15 c-3 7.90 -4.25 9.75 -4.25 6.10z"/>
  <path d="M78.50 99.20 c0 -0.75 5.15 -10.20 5.55 -10.20 0.25 0 0.45 0.65 0.45 1.50 0 1.60 -0.95 4 -1.60 4 -0.20 0 -0.40 0.35 -0.40 0.75 0 0.40 -0.40 1.50 -0.85 2.50 -0.60 1.25 -1.15 1.75 -2 1.75 -0.65 0 -1.15 -0.15 -1.15 -0.30z"/>
  <path d="M36 96.95 c0 -1.60 1.20 -4.95 1.80 -4.95 0.75 0 0.90 1.40 0.40 3.95 -0.25 1.05 -0.60 1.55 -1.25 1.55 -0.55 0 -0.95 -0.25 -0.95 -0.55z"/>
  <path d="M39 85.20 c0 -1.05 0.90 -2.70 1.50 -2.70 0.30 0 0.50 0.80 0.50 1.75 0 1.40 -0.20 1.75 -1 1.75 -0.55 0 -1 -0.35 -1 -0.80z"/>
  <path d="M150 83.15 c0 -0.50 0.15 -2.10 0.30 -3.50 0.30 -2.20 0.50 -2.65 1.30 -2.65 1 0 1.05 0.65 0.10 5.65 -0.30 1.50 -1.70 1.90 -1.70 0.50z"/>
  <path d="M82.65 80.90 c-2.05 -0.65 -2.20 -1.90 -0.25 -1.90 2.35 0 3.60 0.55 3.60 1.55 0 1.05 -0.85 1.15 -3.35 0.35z"/>
  <path d="M73.40 77.95 c-1.45 -0.80 -1.05 -1.45 0.85 -1.45 1.40 0 1.75 0.20 1.75 1 0 1.10 -1.20 1.30 -2.60 0.45z"/>
  <path d="M65 76 c0 -0.80 0.35 -1 1.75 -1 2 0 2.45 1.20 0.65 1.70 -1.90 0.50 -2.40 0.35 -2.40 -0.70z"/>
  <path d="M150.50 74.25 c0 -1.20 -1.20 -4.75 -1.60 -4.75 -0.25 0 -0.40 -0.30 -0.40 -0.60 -0.05 -0.35 -0.70 -1.20 -1.50 -1.90 -0.85 -0.65 -1.50 -1.60 -1.50 -2.10 0 -0.65 -0.40 -0.90 -1.50 -0.90 -0.80 0 -1.50 -0.20 -1.50 -0.45 0 -0.25 -0.90 -0.55 -2 -0.75 -1.60 -0.25 -2 -0.50 -2 -1.35 0 -0.90 0.20 -1.05 1.45 -0.80 6.10 1.25 11.35 6.45 12.30 12.25 0.30 1.90 0.25 2.10 -0.70 2.10 -0.60 0 -1.05 -0.30 -1.05 -0.75z"/>
  <path d="M45.55 73.15 c0.40 -0.50 1.25 -1.40 1.95 -2.05 l1.25 -1.10 0.15 1.25 c0.20 1.60 -0.95 2.75 -2.70 2.75 -1.20 0 -1.25 -0.10 -0.65 -0.85z"/>
  <path d="M53.75 66.20 c4.10 -3.50 4.25 -3.70 4.25 -6 0 -1.85 0.15 -2.20 1 -2.20 0.85 0 1 0.35 1 2 0 1.10 -0.20 2 -0.50 2 -0.25 0 -0.50 0.60 -0.50 1.30 0 1.45 -1.05 2.70 -2.20 2.70 -0.45 0 -0.80 0.35 -0.80 0.75 0 0.55 -0.55 0.75 -1.85 0.75 l-1.90 -0.05 1.50 -1.25z"/>
  <path d="M128.50 59 c0 -1.05 0.50 -1.20 2.40 -0.70 1.80 0.50 1.35 1.70 -0.65 1.70 -1.40 0 -1.75 -0.20 -1.75 -1z"/>
  <path d="M117.90 57.15 c-5.80 -1.50 -6.90 -1.95 -6.90 -2.70 0 -0.55 0.20 -0.95 0.45 -0.95 0.25 0 4 0.90 8.30 2 4.30 1.10 7.95 2 8.05 2 0.10 0 0.20 0.35 0.20 0.75 0 1.15 -2.35 0.90 -10.10 -1.10z"/>
  <path d="M107 53.50 c0 -1.05 0.50 -1.20 2.40 -0.70 1.80 0.50 1.35 1.70 -0.65 1.70 -1.40 0 -1.75 -0.20 -1.75 -1z"/>
  <path d="M50.40 51.90 c-1.85 -2 -2.75 -3.70 -3.40 -6.60 -0.55 -2.60 -0.25 -4.80 0.75 -4.80 0.40 0 0.75 1.25 1 3.75 0.25 2.75 0.55 3.75 1.05 3.75 0.40 0 0.70 0.50 0.70 1.25 0 0.90 0.25 1.25 1 1.25 0.80 0 1 0.35 1 1.50 0 1.90 -0.25 1.90 -2.10 -0.10z"/>
  <path d="M103 52.50 c0 -1.05 0.50 -1.20 2.40 -0.70 1.80 0.50 1.35 1.70 -0.65 1.70 -1.40 0 -1.75 -0.20 -1.75 -1z"/>
  <path d="M96.15 51.60 c-2.45 -0.60 -3.15 -1 -3.15 -1.70 0 -1.15 0.15 -1.15 5.25 0.15 2.75 0.70 4.25 1.30 4.25 1.75 0 0.90 -2.30 0.85 -6.35 -0.20z"/>
  <path d="M89 49 c0 -1.05 0.50 -1.20 2.40 -0.70 1.80 0.50 1.35 1.70 -0.65 1.70 -1.40 0 -1.75 -0.20 -1.75 -1z"/>
  <path d="M83.50 47.50 c0 -1.05 0.50 -1.20 2.40 -0.70 1.80 0.50 1.35 1.70 -0.65 1.70 -1.40 0 -1.75 -0.20 -1.75 -1z"/>
  <path d="M77.50 46 c0 -1.05 0.50 -1.20 2.40 -0.70 1.80 0.50 1.35 1.70 -0.65 1.70 -1.40 0 -1.75 -0.20 -1.75 -1z"/>
  <path d="M68.90 44.65 c-4 -1.05 -4.90 -1.45 -4.90 -2.20 0 -1.20 -0.10 -1.20 6.75 0.55 3.20 0.85 5.90 1.50 6.05 1.50 0.10 0 0.20 0.35 0.20 0.75 0 1.05 -2.30 0.90 -8.10 -0.60z"/>
  <path d="M60 41.50 c0 -1.05 0.50 -1.20 2.40 -0.70 1.80 0.50 1.35 1.70 -0.65 1.70 -1.40 0 -1.75 -0.20 -1.75 -1z"/>
  <path d="M56 40.50 c0 -1.05 0.50 -1.20 2.40 -0.70 1.80 0.50 1.35 1.70 -0.65 1.70 -1.40 0 -1.75 -0.20 -1.75 -1z"/>
  <path d="M51 40 c-0.70 -0.20 -1.85 -0.25 -2.60 -0.10 -1.20 0.20 -1.40 0.05 -1.40 -1 0 -0.70 0.10 -1.35 0.25 -1.50 0.55 -0.55 8.25 1.70 8.25 2.40 0 0.75 -2.35 0.90 -4.50 0.20z"/>
 </g>
 <g fill="#cac3bd">
  <path d="M122.60 186.25 c-0.35 -0.70 -0.60 -1.60 -0.60 -2 0 -1.15 -0.95 -0.90 -2.25 0.65 -1.30 1.55 -1.60 1.45 -2.05 -0.80 -0.30 -1.40 -0.20 -1.60 0.75 -1.60 0.55 0 1.05 -0.20 1.05 -0.50 0 -0.25 0.80 -0.50 1.75 -0.50 1.40 0 1.75 0.20 1.75 1 0 0.55 0.25 1 0.50 1 0.55 0 0.60 1.80 0.05 3.15 -0.30 0.85 -0.40 0.80 -0.95 -0.40z"/>
  <path d="M127 186.75 c0 -0.65 -0.60 -1.95 -1.40 -3.25 -0.10 -0.10 -0.35 0.10 -0.60 0.50 -0.40 0.65 -0.50 0.65 -0.50 -0.05 0 -0.60 0.65 -0.90 2.30 -1.15 3.75 -0.50 4.20 -0.40 4.20 0.75 0 0.85 -0.15 0.95 -0.65 0.50 -0.55 -0.45 -0.90 -0.15 -1.60 1.45 -0.90 2.05 -1.75 2.60 -1.75 1.25z"/>
  <path d="M131.55 186.10 c-0.35 -0.65 -0.30 -1.55 0.05 -2.75 0.50 -1.65 0.75 -1.85 2.25 -1.85 0.90 0 1.65 0.25 1.65 0.50 0 0.30 0.30 0.50 0.70 0.50 0.70 0 1.30 1.45 1.30 3.15 0 1.30 -0.65 1 -1.95 -0.90 -1.35 -2 -1.90 -1.90 -2.35 0.50 -0.35 1.95 -0.90 2.20 -1.65 0.85z"/>
  <path d="M113.45 184.15 c0 -0.80 -0.20 -1.80 -0.35 -2.30 -0.35 -0.80 -0.55 -0.70 -1.85 0.65 -0.80 0.80 -1.60 1.50 -1.80 1.50 -0.20 0 -0.35 -0.90 -0.35 -2.05 -0.05 -1.15 -0.15 -2.15 -0.25 -2.25 -0.15 -0.15 -0.90 0.35 -1.75 1.05 -0.80 0.70 -1.65 1.25 -1.85 1.25 -0.20 0 -0.20 -1 -0.05 -2.25 0.20 -1.25 0.20 -2.25 -0.05 -2.25 -0.20 0 -1.15 0.45 -2.10 1.05 -0.90 0.55 -1.75 0.90 -1.85 0.80 -0.10 -0.10 0.05 -1 0.35 -2.05 0.30 -1.05 0.40 -2.05 0.25 -2.20 -0.20 -0.15 -1.15 0.10 -2.10 0.60 -1 0.45 -1.90 0.75 -2 0.65 -0.10 -0.10 0.15 -1.15 0.55 -2.35 0.85 -2.35 1.10 -2.25 -2.60 -1.20 -1.30 0.35 -1.55 -0.60 -0.50 -1.95 0.90 -1.20 5.35 -0.20 5.35 1.20 0 0.70 0.35 0.95 1.50 0.95 1.25 0 1.50 0.20 1.50 1.25 0 1.10 0.20 1.25 1.75 1.25 1.55 0 1.75 0.15 1.75 1.25 0 1.15 0.20 1.25 2 1.25 1.95 0 2 0.05 2.05 1.90 0.05 1 0.15 1.45 0.30 1 0.15 -0.65 0.70 -0.90 1.90 -0.90 1.45 0 1.70 0.20 1.85 1.40 0.10 0.75 0.40 1.30 0.80 1.20 0.35 -0.05 0.20 0.50 -0.45 1.40 -1.40 1.85 -1.95 1.90 -2 0.15z"/>
  <path d="M140.60 184.40 c-0.75 -0.75 -0.80 -2.40 -0.10 -2.40 0.30 0 0.50 -0.70 0.50 -1.55 0 -1.45 0.10 -1.50 1.90 -1.35 1.50 0.10 1.90 0.35 2 1.30 0.10 0.60 0.40 1.10 0.65 1.10 0.25 0 0.45 0.45 0.45 1.05 0 0.95 -0.15 0.90 -1.85 -0.55 l-1.90 -1.55 -0.15 2.30 c-0.15 2.35 -0.45 2.70 -1.50 1.65z"/>
  <path d="M148 178.25 c0 -2 1.20 -2.45 1.70 -0.60 0.50 1.85 0.35 2.35 -0.70 2.35 -0.80 0 -1 -0.35 -1 -1.75z"/>
  <path d="M151.90 177.60 c-1.40 -0.85 -1.80 -1.60 -0.90 -1.60 0.30 0 0.50 -0.45 0.50 -1.05 0 -1.40 1.15 -2.45 2.70 -2.45 1.10 0 1.30 -0.20 1.30 -1.50 0 -1.15 0.20 -1.50 1 -1.50 0.75 0 1 -0.35 1 -1.25 0 -0.95 0.25 -1.25 1.15 -1.25 1.15 0 3.10 -1 2 -1 -0.40 0 -0.65 -0.70 -0.65 -1.75 0 -1.65 0.10 -1.75 1.75 -1.75 1.40 0 1.75 0.20 1.75 1 0 0.70 -0.35 1 -1.05 1 l-1.05 0 1.05 1.70 c0.60 0.90 1.05 1.80 1.05 2 0 0.20 -1.05 0.20 -2.30 0 l-2.30 -0.35 0.80 1.55 c1.15 2.25 1.05 2.75 -0.55 2.45 -0.80 -0.15 -1.80 -0.45 -2.30 -0.60 -0.75 -0.30 -0.80 -0.20 -0.35 1 0.25 0.70 0.50 1.75 0.50 2.30 0 0.90 -0.10 0.95 -1.85 0.20 -1 -0.40 -1.90 -0.70 -1.95 -0.60 -0.10 0.10 0.05 0.95 0.30 1.90 0.80 2.80 0.65 3 -1.60 1.55z"/>
  <path d="M91.55 168.80 c0.45 -0.95 1 -1.30 2.05 -1.30 1.75 0 1.90 1.25 0.20 1.70 -0.65 0.15 -1.55 0.45 -2 0.60 -0.75 0.30 -0.75 0.15 -0.25 -1z"/>
  <path d="M88.80 165.40 c0.20 -0.35 0.80 -1.25 1.30 -2 0.50 -0.70 0.90 -1.40 0.90 -1.55 0 -0.15 -1 -0.20 -2.25 -0.10 -1.25 0.05 -2.25 0 -2.25 -0.20 0 -0.85 1.35 -1.55 3.10 -1.55 l1.90 0 -0.05 2.70 c-0.05 2.30 -0.25 2.75 -1.15 3 -1.60 0.45 -1.90 0.35 -1.50 -0.30z"/>
  <path d="M166.50 159.40 c0 -1 0.05 -1.05 1 -0.15 0.55 0.50 1 1 1 1.10 0 0.05 -0.45 0.15 -1 0.15 -0.70 0 -1 -0.35 -1 -1.10z"/>
  <path d="M88.80 158.80 c0.50 -1.25 -2.90 -1.55 -15.90 -1.40 l-12.40 0.10 0 -2.15 0 -2.20 11.50 -0.30 11.50 -0.30 1.80 -1.40 1.80 -1.35 -2.35 -0.80 -2.40 -0.80 1.20 -0.75 c0.90 -0.60 1.55 -0.65 2.60 -0.25 1.10 0.40 1.35 0.80 1.35 2.20 l0 1.70 9.65 -0.30 c5.25 -0.15 19.30 -0.40 31.10 -0.55 29.85 -0.35 38.75 -0.70 38.75 -1.55 0 -0.35 0.70 0 1.60 0.85 1.35 1.20 2.05 1.45 4.25 1.45 2 0 2.65 -0.20 2.65 -0.75 0 -0.60 0.70 -0.75 3.25 -0.75 2.55 0 3.25 0.15 3.25 0.75 0 0.60 0.70 0.75 3.15 0.75 3.55 0 5 0.75 5.75 3 l0.55 1.50 -4.85 0 c-7.85 0.05 -20.70 0.90 -21.05 1.40 -0.30 0.40 -51.40 1.65 -68.40 1.60 -4.80 0 -7.65 0.20 -7.65 0.50 0 0.30 -0.20 0.50 -0.50 0.50 -0.25 0 -0.35 -0.30 -0.20 -0.70z"/>
  <path d="M175.35 145.65 c-0.15 -0.80 -0.25 -3.05 -0.25 -5.05 -0.05 -2.05 -0.15 -3.85 -0.35 -4 -0.15 -0.15 -1.55 -0.35 -3.15 -0.40 -2.50 -0.10 -2.70 -0.05 -1.45 0.45 1.75 0.70 1.70 1 -0.40 2 -0.95 0.45 -1.75 1.05 -1.75 1.30 0 0.25 0.80 0.75 1.75 1.10 0.95 0.35 1.75 0.85 1.75 1.05 0 0.20 -0.80 0.70 -1.75 1.10 -2 0.85 -2.10 1.15 -0.85 2.10 0.75 0.60 0.65 0.65 -1 0.70 -1.85 0 -1.90 -0.05 -1.90 -1.75 0 -0.95 0.25 -1.75 0.50 -1.75 0.30 0 0.50 -0.80 0.50 -1.75 0 -1.20 0.25 -1.75 0.75 -1.75 0.40 0 0.75 -0.20 0.75 -0.45 0 -0.30 -1.15 -0.55 -2.55 -0.65 l-2.55 -0.15 -1.10 -3.75 c-3.40 -11.70 -11.80 -20.85 -23.30 -25.40 -9.15 -3.60 -17.95 -3.15 -27.25 1.45 -10.70 5.30 -18.25 15.05 -20.75 26.85 -0.50 2.25 -0.75 2.60 -1.75 2.60 -1 0 -1.20 0.30 -1.35 1.90 -0.15 1.75 -0.25 1.85 -2 2 -2.10 0.20 -2.50 -0.55 -0.80 -1.45 l1.10 -0.60 -1.10 -0.90 c-0.60 -0.45 -1.40 -0.95 -1.75 -1.10 -0.45 -0.15 -0.45 -0.35 0.05 -1 0.65 -0.75 0.45 -0.80 -1.90 -0.50 l-2.60 0.30 0.20 -2.70 c1.15 -13.85 13.10 -29.85 27.15 -36.40 1.40 -0.65 2.95 -1.40 3.50 -1.70 2.75 -1.40 12.45 -3.30 17.25 -3.30 7.45 -0.05 19.85 3.35 24.15 6.65 0.95 0.70 1.85 1.30 2.05 1.30 1.25 0 10.70 8.85 12.80 12 0.65 0.95 1.35 1.85 1.50 2 0.15 0.15 0.55 0.80 0.95 1.50 3.30 5.75 5.15 10.50 6.20 15.55 l0.65 3.20 3.20 0 c3.15 0 3.25 0.05 3.40 1.40 0.15 1.10 -0.05 1.35 -0.85 1.35 -0.60 0 -1.05 -0.20 -1.05 -0.50 0 -0.25 -0.65 -0.50 -1.50 -0.50 l-1.50 0 0 4.50 c0 3.55 -0.15 4.50 -0.70 4.50 -0.40 0 -0.85 -0.60 -0.95 -1.35z"/>
  <path d="M70.50 137 c0 -0.65 0.35 -1 1 -1 0.65 0 1 0.35 1 1 0 0.65 -0.35 1 -1 1 -0.65 0 -1 -0.35 -1 -1z"/>
  <path d="M61 135.55 c-0.80 -1.55 -0.60 -2.55 0.50 -2.55 0.80 0 1 0.35 1 1.75 0 1.95 -0.70 2.30 -1.50 0.80z"/>
  <path d="M71.50 132 c0 -1.65 0.15 -2 1 -2 1.05 0 1.25 0.80 0.70 2.90 -0.55 1.95 -1.70 1.35 -1.70 -0.90z"/>
  <path d="M74 123.55 c0 -2.20 0.50 -3.05 1.80 -3.05 l1.15 0 -0.85 2.25 c-0.95 2.55 -2.10 3 -2.10 0.80z"/>
  <path d="M51.65 121.75 c-2.15 -0.90 -2.10 -1.75 0.10 -1.75 1.55 0 1.75 0.15 1.75 1.25 0 0.70 -0.05 1.25 -0.10 1.25 -0.10 -0.05 -0.90 -0.35 -1.75 -0.75z"/>
  <path d="M46.65 119.75 c-2.15 -0.90 -2.10 -1.75 0.10 -1.75 1.55 0 1.75 0.15 1.75 1.25 0 0.70 -0.05 1.25 -0.10 1.25 -0.10 -0.05 -0.90 -0.35 -1.75 -0.75z"/>
  <path d="M41.25 117.60 c-2.70 -1.15 -4.55 -2.45 -5.50 -3.90 -0.75 -1.20 -0.75 -1.20 0.75 -1.20 1.25 0 1.50 0.20 1.50 1.25 0 1.05 0.25 1.25 1.50 1.25 0.85 0 1.50 0.25 1.50 0.50 0 0.30 0.55 0.50 1.25 0.50 1 0 1.25 0.25 1.25 1.25 0 0.70 -0.05 1.25 -0.10 1.20 -0.10 0 -1.05 -0.40 -2.15 -0.85z"/>
  <path d="M78 115.25 c0 -1.20 0.25 -1.75 0.75 -1.75 0.45 0 0.75 -0.45 0.75 -1.25 0 -0.80 0.30 -1.25 0.75 -1.25 0.40 0 0.75 -0.45 0.75 -1 0 -0.55 0.35 -1 0.75 -1 0.40 0 0.75 -0.45 0.75 -1 0 -0.80 0.35 -1 1.55 -1 l1.55 0 -1.80 2.40 c-1 1.30 -2.55 3.55 -3.40 5 -0.90 1.40 -1.80 2.60 -2 2.60 -0.25 0 -0.40 -0.80 -0.40 -1.75z"/>
  <path d="M69.40 115.65 c0.35 -0.15 0.95 -0.90 1.35 -1.70 1.05 -1.95 1.75 -1.85 1.75 0.30 0 1.70 -0.05 1.75 -1.85 1.70 -1.05 0 -1.60 -0.15 -1.25 -0.30z"/>
  <path d="M63.50 114.25 c0 -1.20 0.05 -1.25 1.60 -0.60 2.30 0.95 2.40 1.85 0.20 1.85 -1.60 0 -1.80 -0.15 -1.80 -1.25z"/>
  <path d="M58.50 112.25 c0 -1.20 0.05 -1.25 1.60 -0.60 2.30 0.95 2.40 1.85 0.20 1.85 -1.60 0 -1.80 -0.15 -1.80 -1.25z"/>
  <path d="M54 110 c0 -1.25 -0.20 -1.50 -1.25 -1.50 -1.10 0 -1.25 -0.20 -1.25 -1.75 0 -2.30 0.75 -2.20 2 0.20 0.55 1.10 1.65 2.40 2.50 2.90 1.95 1.15 1.90 1.65 -0.25 1.65 -1.60 0 -1.75 -0.10 -1.75 -1.50z"/>
  <path d="M33.80 108.90 c-0.50 -1.90 -0.35 -2.40 0.70 -2.40 0.80 0 1 0.35 1 1.75 0 2 -1.20 2.45 -1.70 0.65z"/>
  <path d="M165.25 104.40 l-3.50 -3.65 3.65 3.50 c1.95 1.90 3.60 3.55 3.60 3.60 0 0.40 -0.55 -0.10 -3.75 -3.45z"/>
  <path d="M34 104.90 c0 -1.50 0.65 -2.90 1.30 -2.90 0.45 0 0.70 0.60 0.70 1.75 0 1.40 -0.20 1.75 -1 1.75 -0.55 0 -1 -0.30 -1 -0.60z"/>
  <path d="M51 100.75 c0 -1.50 0.15 -1.75 1.20 -1.75 1.15 0 1.20 0.10 0.65 1.75 -0.30 0.95 -0.80 1.75 -1.20 1.75 -0.40 0 -0.65 -0.65 -0.65 -1.75z"/>
  <path d="M90.50 100.55 c0 -1.20 0.20 -1.55 1 -1.55 0.55 0 1 -0.35 1 -0.75 0 -0.55 0.55 -0.75 1.80 -0.75 2.15 0 1.90 0.45 -1.55 2.95 l-2.25 1.60 0 -1.50z"/>
  <path d="M52.50 96.80 c0 -1.60 0.15 -1.80 1.25 -1.80 1.20 0 1.25 0.05 0.60 1.60 -0.95 2.30 -1.85 2.40 -1.85 0.20z"/>
  <path d="M97 95.75 c0 -1.10 0.20 -1.25 1.75 -1.25 2.15 0 2.20 0.50 0.30 1.65 -1.90 1.10 -2.05 1.10 -2.05 -0.40z"/>
  <path d="M80.60 95.15 c1.75 -3.70 2.40 -4.05 2.40 -1.40 0 1.55 -0.15 1.75 -1.30 1.75 -0.70 0 -1.20 -0.15 -1.10 -0.35z"/>
  <path d="M150.15 93.65 c-2.45 -1.40 -2.75 -2.15 -0.90 -2.15 1.05 0 1.25 -0.25 1.25 -1.50 0 -1.95 1.30 -2 1.70 -0.10 0.75 3.75 0.85 5.10 0.50 5.05 -0.25 -0.05 -1.40 -0.60 -2.55 -1.30z"/>
  <path d="M104 92.25 c0 -1 0.25 -1.25 1.25 -1.25 0.70 0 1.25 -0.20 1.25 -0.50 0 -0.25 0.70 -0.50 1.50 -0.50 0.85 0 1.50 -0.20 1.50 -0.40 0 -0.55 6.50 -2.05 10.65 -2.45 2.80 -0.25 3.35 -0.15 3.35 0.45 0 0.85 -1.40 1.40 -3.75 1.40 -1.95 0 -9.75 2.05 -13.10 3.45 l-2.65 1.05 0 -1.25z"/>
  <path d="M145.65 91.75 c-1.55 -0.65 -9.45 -2.45 -13.25 -3 -1.30 -0.20 -1.90 -0.55 -1.90 -1.10 0 -0.70 0.50 -0.75 3.65 -0.45 3.30 0.30 12.60 2.40 13.20 2.95 0.10 0.15 0.15 0.70 0.05 1.25 -0.15 0.95 -0.25 1 -1.75 0.35z"/>
  <path d="M56 88.25 c0 -0.95 0.25 -1.75 0.50 -1.75 0.30 0 0.50 -0.55 0.50 -1.25 0 -0.70 0.25 -1.25 0.50 -1.25 0.30 0 0.50 -0.55 0.50 -1.25 0 -1 0.25 -1.25 1.25 -1.25 l1.25 0 -1 2.50 c-2 5.05 -2.45 6 -2.95 6 -0.30 0 -0.55 -0.80 -0.55 -1.75z"/>
  <path d="M40.15 81.90 c0.95 -2.30 1.85 -2.40 1.85 -0.20 0 1.60 -0.15 1.80 -1.25 1.80 -1.20 0 -1.25 -0.05 -0.60 -1.60z"/>
  <path d="M86.80 82.75 c0.20 -0.45 -0.15 -0.80 -1 -1.05 -1.95 -0.50 -1.65 -1.70 0.45 -1.70 1.65 0 1.75 0.10 1.75 1.75 0 1.20 -0.25 1.75 -0.75 1.75 -0.40 0 -0.60 -0.30 -0.45 -0.75z"/>
  <path d="M77.90 79.35 c-3.70 -1.15 -4.55 -2.35 -1.65 -2.35 0.95 0 1.75 0.25 1.75 0.50 0 0.30 0.60 0.50 1.40 0.50 2.35 0 3.60 0.55 3.60 1.55 0 1.15 -0.75 1.15 -5.10 -0.20z"/>
  <path d="M41.50 79.15 c0 -0.50 3 -5 3.80 -5.65 0.60 -0.55 0.70 -0.35 0.70 1.20 0 1.45 -0.20 1.80 -1 1.80 -0.80 0 -1 0.35 -1 1.50 0 1.25 -0.20 1.50 -1.25 1.50 -0.70 0 -1.25 -0.15 -1.25 -0.35z"/>
  <path d="M63 76.80 c0 -1.15 0.20 -1.30 1.75 -1.30 1.85 0 2.50 1.15 0.90 1.65 -0.50 0.10 -1.30 0.40 -1.75 0.60 -0.75 0.30 -0.90 0.10 -0.90 -0.95z"/>
  <path d="M68.40 76.65 c-1.65 -0.40 -1 -1.65 0.85 -1.65 1.40 0 1.75 0.20 1.75 1 0 1 -0.70 1.15 -2.60 0.65z"/>
  <path d="M149 68.75 c0 -2.65 0.65 -2.30 2.40 1.40 0.10 0.20 -0.40 0.35 -1.10 0.35 -1.15 0 -1.30 -0.20 -1.30 -1.75z"/>
  <path d="M50.75 68.50 c0.15 -0.25 0.95 -0.95 1.75 -1.50 l1.50 -1.05 0 1.50 c0 1.45 -0.15 1.55 -1.80 1.55 -1 0 -1.65 -0.20 -1.45 -0.50z"/>
  <path d="M58.15 61.15 c0.15 -0.75 0.05 -1.85 -0.20 -2.50 -0.35 -1 -0.25 -1.15 0.80 -1.15 1.15 0 1.25 0.15 1.25 2.50 0 2.20 -0.10 2.50 -1.05 2.50 -0.90 0 -1 -0.25 -0.80 -1.35z"/>
  <path d="M55.65 55.85 c-2.10 -1.40 -2.05 -1.85 0.10 -1.85 1.60 0 1.75 0.10 1.75 1.50 0 0.85 -0.05 1.50 -0.10 1.45 -0.10 0 -0.90 -0.50 -1.75 -1.10z"/>
  <path d="M104.50 53 c0 -1.05 0.50 -1.20 2.40 -0.70 1.80 0.50 1.35 1.70 -0.65 1.70 -1.40 0 -1.75 -0.20 -1.75 -1z"/>
  <path d="M61.50 42 c0 -1.05 0.50 -1.20 2.40 -0.70 1.80 0.50 1.35 1.70 -0.65 1.70 -1.40 0 -1.75 -0.20 -1.75 -1z"/>
  <path d="M57.50 41 c0 -1.05 0.50 -1.20 2.40 -0.70 1.80 0.50 1.35 1.70 -0.65 1.70 -1.40 0 -1.75 -0.20 -1.75 -1z"/>
  <path d="M47.10 39 c0.10 -1.05 0.35 -1.50 1 -1.50 0.65 0 0.90 0.40 0.90 1.50 0 1.15 -0.20 1.50 -1 1.50 -0.80 0 -1 -0.30 -0.90 -1.50z"/>
 </g>
 <g fill="#b2aba1">
  <path d="M122.85 186.65 c-0.20 -0.15 -0.35 -0.95 -0.35 -1.75 0 -1.15 0.20 -1.40 1.25 -1.40 0.70 0 1.25 0.15 1.25 0.40 0 0.75 -1.85 3.10 -2.15 2.75z"/>
  <path d="M131.05 185.15 c-1.05 -1.65 -1.25 -1.75 -1.80 -1 -0.90 1.25 -1.25 1.05 -1.25 -0.90 0 -1.65 0.10 -1.75 1.75 -1.75 1.60 0 1.75 0.10 1.75 1.50 0 1 0.25 1.50 0.75 1.50 0.45 0 0.75 0.45 0.75 1.25 0 1.70 -0.55 1.55 -1.95 -0.60z"/>
  <path d="M118 185.50 c0 -0.65 0.35 -1 1 -1 0.90 0 0.95 0.10 0.40 1 -0.35 0.55 -0.80 1 -1 1 -0.25 0 -0.40 -0.45 -0.40 -1z"/>
  <path d="M136.15 185.50 c-0.35 -0.55 -0.50 -1.60 -0.35 -2.50 0.30 -1.45 0.40 -1.50 3.25 -1.50 l2.90 0 -0.05 1.75 c-0.10 2.15 -0.55 2.20 -2 0.25 -0.60 -0.80 -1.25 -1.50 -1.45 -1.50 -0.20 0 -0.60 1 -0.90 2.25 -0.30 1.25 -0.60 2.25 -0.70 2.25 -0.05 0 -0.40 -0.45 -0.70 -1z"/>
  <path d="M113.60 183.75 c-0.10 -2.35 -0.50 -2.95 -1.40 -2.20 -0.55 0.45 -0.70 0.35 -0.70 -0.75 0 -1.15 0.20 -1.30 1.75 -1.30 1.70 0 1.75 0.10 1.80 1.90 0.10 1.50 0.15 1.60 0.30 0.50 0.20 -1.20 0.45 -1.40 1.95 -1.40 1.60 0 1.70 0.10 1.70 1.75 0 1.20 -0.25 1.75 -0.75 1.75 -0.40 0 -0.75 -0.35 -0.75 -0.75 0 -1.10 -0.50 -0.95 -2.25 0.75 l-1.60 1.55 -0.05 -1.80z"/>
  <path d="M109.20 183.25 c0.15 -0.45 0.30 -1.05 0.30 -1.30 0 -0.25 0.35 -0.45 0.75 -0.45 1.10 0 0.90 1.15 -0.30 1.95 -0.95 0.55 -1.05 0.55 -0.75 -0.20z"/>
  <path d="M144.50 178.75 c0 -1.65 0.10 -1.75 1.75 -1.75 1.55 0 1.75 0.15 1.75 1.30 0 1.05 -0.20 1.20 -1 0.95 -0.70 -0.25 -1 -0.10 -1 0.45 0 0.45 -0.35 0.80 -0.75 0.80 -0.50 0 -0.75 -0.55 -0.75 -1.75z"/>
  <path d="M101.50 178.65 c0 -1.70 0.60 -3.15 1.30 -3.15 0.40 0 0.70 0.25 0.70 0.50 0 0.30 0.35 0.50 0.75 0.50 1.20 0 0.85 0.65 -1 1.90 -1.55 1 -1.75 1 -1.75 0.25z"/>
  <path d="M98 175.25 c0 -1.10 0.90 -2.75 1.55 -2.75 0.90 0 0.30 3.25 -0.65 3.40 -0.55 0.10 -0.90 -0.15 -0.90 -0.65z"/>
  <path d="M155.50 174.50 c-0.60 -0.60 -1 -1.65 -1 -2.75 0 -1.65 0.10 -1.75 1.65 -1.75 1.60 0 1.60 -0.05 1.45 -2 -0.20 -1.95 -0.15 -2 1.35 -2 1.45 0 1.55 -0.15 1.55 -1.75 0 -1.60 0.10 -1.75 1.50 -1.75 0.85 0 1.50 -0.25 1.50 -0.55 0 -0.75 1.35 0.35 2.05 1.70 0.50 0.90 0.40 0.95 -1.75 0.80 -1.25 -0.15 -2.30 -0.10 -2.30 0.05 0 0.15 0.45 1 1 1.90 0.55 0.90 1 1.70 1 1.80 0 0.10 -1 0.05 -2.25 -0.10 -1.40 -0.15 -2.25 -0.05 -2.25 0.30 0 0.30 0.20 0.65 0.45 0.80 0.25 0.15 0.55 0.75 0.70 1.35 0.25 1 0.15 1.05 -1.90 0.80 l-2.20 -0.30 0.75 2.05 c0.35 1.10 0.70 2.10 0.70 2.20 0 0.55 -1.10 0.10 -2 -0.80z"/>
  <path d="M95.25 170.70 l0.75 -1.85 -2.25 0.30 c-1.25 0.20 -2.25 0.15 -2.25 -0.05 0 -0.20 0.45 -1.05 0.95 -1.90 l0.95 -1.60 -1.95 -0.30 c-2.25 -0.35 -2.25 -0.40 -1.10 -2.35 1 -1.70 1.65 -1.85 1.65 -0.45 0 0.80 0.35 1 1.50 1 1.40 0 1.50 0.15 1.50 1.75 0 1.55 0.15 1.75 1.25 1.75 1.10 0 1.25 0.20 1.25 1.95 0 2.75 -0.40 3.55 -1.80 3.55 -1.20 0 -1.20 0 -0.45 -1.80z"/>
  <path d="M86.50 161.60 c0 -0.15 0.60 -0.90 1.35 -1.70 1.50 -1.55 1.40 -1.85 -0.95 -2.40 -1.45 -0.35 -1.30 -0.40 1.25 -0.45 2.85 -0.05 2.85 -0.05 2.85 1.45 0 1.25 -0.20 1.50 -1.25 1.50 -0.75 0 -1.25 0.30 -1.25 0.70 0 0.35 -0.45 0.80 -1 0.95 -0.55 0.15 -1 0.10 -1 -0.05z"/>
  <path d="M165.90 159 l-0.25 -1.50 1.20 1.10 c1.40 1.30 1.45 1.90 0.20 1.90 -0.65 0 -1 -0.45 -1.15 -1.50z"/>
  <path d="M115.50 157.80 c0 -1 1.65 -1.30 7.65 -1.30 5 0 5.35 0.05 5.35 1 0 0.95 -0.35 1 -6.50 1 -5.20 0 -6.50 -0.15 -6.50 -0.70z"/>
  <path d="M140.50 157.30 c0 -1 1.60 -1.30 7.15 -1.30 4.50 0 4.85 0.05 4.85 1 0 0.95 -0.35 1 -6 1 -4.80 0 -6 -0.15 -6 -0.70z"/>
  <path d="M160 157 c0 -0.85 0.35 -1 2 -1 1.65 0 2 0.15 2 1 0 0.85 -0.35 1 -2 1 -1.65 0 -2 -0.15 -2 -1z"/>
  <path d="M166.50 156 c0.70 -0.20 1.80 -0.40 2.50 -0.40 1.10 0 1.10 0.05 -0.25 0.40 -0.80 0.20 -1.95 0.40 -2.50 0.40 -0.80 0 -0.75 -0.10 0.25 -0.40z"/>
  <path d="M88.50 151.50 c0 -0.95 0.35 -1 5.50 -1 4.35 0 5.50 0.15 5.50 0.70 0 0.95 -1.60 1.30 -6.60 1.30 -4.05 0 -4.40 -0.10 -4.40 -1z"/>
  <path d="M116.50 151.10 c0 -0.55 -0.35 -1.80 -0.75 -2.75 -0.80 -1.90 -1 -7.45 -0.40 -10.40 0.20 -1 1.20 -2.55 2.60 -3.95 2.75 -2.75 5.60 -3.70 10.15 -3.40 5.40 0.35 8.85 2.65 10.40 6.90 1.20 3.25 1.25 6.45 0.25 9.80 -1.40 4.55 -0.90 4.35 -12.25 4.60 -9.75 0.20 -10 0.20 -10 -0.80z m13.15 -5.10 c0.95 -0.85 1.85 -1.95 2 -2.50 0.35 -1.30 -1.55 -4.05 -3.30 -4.90 -1.75 -0.85 -3.60 0 -5.20 2.35 -1.05 1.50 -1.05 1.75 -0.40 3.05 0.90 1.75 3.05 3.50 4.30 3.50 0.50 0 1.70 -0.70 2.60 -1.50z"/>
  <path d="M142.50 150.50 c0 -1 0.25 -1 11 -1 9.05 0 11 0.10 11 0.70 0 1.05 -1.45 1.20 -12.10 1.30 -9.65 0.05 -9.90 0 -9.90 -1z"/>
  <path d="M169.40 151.15 c-0.50 -0.10 -0.90 -0.45 -0.90 -0.70 0 -0.65 0.60 -0.55 1.70 0.30 1 0.75 0.80 0.85 -0.80 0.40z"/>
  <path d="M184.65 151.15 c0.75 -0.10 1.85 -0.10 2.50 0 0.60 0.10 0 0.20 -1.40 0.20 -1.35 0 -1.90 -0.10 -1.10 -0.20z"/>
  <path d="M86.45 150.30 c0.50 -0.60 0.25 -0.85 -1.50 -1.35 l-2.10 -0.65 1.85 -1.55 1.90 -1.55 -2.05 -0.70 c-1.15 -0.35 -2.05 -0.80 -2.05 -1.05 0 -0.20 0.85 -0.70 1.90 -1.10 1.80 -0.75 1.85 -0.75 2 0.45 0.10 0.65 0.50 1.20 0.90 1.20 0.55 0 0.70 0.80 0.70 3.50 0 3.25 -0.10 3.50 -1.05 3.50 -0.90 0 -0.95 -0.15 -0.50 -0.70z"/>
  <path d="M175.40 144.75 c-0.05 -3.45 -0.10 -6.65 -0.10 -7.10 -0.05 -0.75 0.45 -0.95 2.90 -1.05 2.05 -0.10 3.10 0.05 3.35 0.50 0.25 0.35 0.45 3.65 0.45 7.30 l0 6.60 -3.25 0 -3.25 0 -0.10 -6.25z"/>
  <path d="M169.50 142.50 c0 -0.25 -0.80 -0.50 -1.75 -0.50 -1.55 0 -1.75 -0.15 -1.75 -1.25 0 -1.10 -0.20 -1.25 -1.70 -1.25 -1.45 0 -1.75 -0.20 -2 -1.35 -0.15 -0.80 -0.30 -2.20 -0.25 -3.15 0.05 -0.95 -0.20 -2.40 -0.50 -3.15 -0.70 -1.80 -0.70 -4.35 0 -4.35 0.65 0 1.80 2.70 2.55 6.10 0.40 1.75 0.90 2.60 1.55 2.80 0.60 0.15 0.85 0.55 0.70 1.15 -0.20 0.70 0 0.95 0.70 0.95 0.60 0 0.95 -0.35 0.95 -1 0 -1.05 0.95 -1.25 2.70 -0.55 0.85 0.35 0.75 0.50 -0.90 1.50 -2.10 1.30 -2.10 2.05 0 2.70 1.90 0.65 2.05 0.80 1.20 1.35 -1 0.65 -1.50 0.60 -1.50 0z"/>
  <path d="M83.50 139 c0 -0.85 2.10 -1.60 3.80 -1.35 1.65 0.30 1.65 0.25 2.20 -2.35 1.25 -6.15 3.50 -10.05 3.50 -6.10 0 1 -0.20 1.80 -0.40 1.80 -0.25 0 -0.70 1.80 -1.05 3.95 -0.55 3.35 -0.80 4 -1.75 4.25 -1.75 0.45 -6.30 0.35 -6.30 -0.20z"/>
  <path d="M60.80 134.70 c-0.15 -0.45 -0.30 -1.65 -0.30 -2.75 0 -1.60 0.15 -1.95 1 -1.95 0.90 0 1 0.35 1 2.75 0 2 -0.20 2.75 -0.70 2.75 -0.40 0 -0.85 -0.35 -1 -0.80z"/>
  <path d="M71 133.75 c0 -1.40 0.20 -1.75 1 -1.75 1.05 0 1.20 0.50 0.70 2.40 -0.50 1.80 -1.70 1.35 -1.70 -0.65z"/>
  <path d="M157.50 123.25 c0 -0.40 -0.20 -0.75 -0.50 -0.75 -0.25 0 -0.50 -0.55 -0.50 -1.25 0 -0.90 -0.25 -1.25 -1 -1.25 -0.80 0 -1 -0.35 -1 -1.80 0 -0.95 0.20 -1.65 0.45 -1.45 0.70 0.40 5.05 6.30 5.05 6.80 0 0.25 -0.55 0.45 -1.25 0.45 -0.80 0 -1.25 -0.30 -1.25 -0.75z"/>
  <path d="M97.50 118.50 c1.55 -2.20 2 -2.25 2 -0.30 0 1.65 -0.10 1.80 -1.55 1.80 l-1.50 0 1.05 -1.50z"/>
  <path d="M101.75 114.20 c1.90 -1.70 2 -1.70 2.15 -0.70 0.30 1.90 -0.25 2.50 -2.25 2.50 l-1.90 -0.05 2 -1.75z"/>
  <path d="M149.20 114.25 c-0.20 -0.40 -0.60 -0.75 -1 -0.75 -0.40 0 -0.70 -0.20 -0.70 -0.50 0 -0.25 -0.35 -0.50 -0.75 -0.50 -0.40 0 -0.75 -0.45 -0.75 -1 0 -0.80 -0.35 -1 -1.75 -1 -1.55 0 -1.75 -0.15 -1.75 -1.25 0 -0.70 0.20 -1.25 0.40 -1.25 0.70 0 8.35 4.85 9.30 5.95 0.95 1.05 0.95 1.05 -0.90 1.05 -1.15 0 -1.95 -0.25 -2.10 -0.75z"/>
  <path d="M80.50 111.30 c0 -1.65 0.10 -1.80 1.55 -1.80 l1.50 0 -1.05 1.50 c-1.55 2.20 -2 2.25 -2 0.30z"/>
  <path d="M105.20 111.55 c1.05 -1.15 8.55 -4.95 10.70 -5.35 1.40 -0.30 1.60 -0.20 1.60 0.70 0 0.80 -0.40 1.15 -1.85 1.40 -1.05 0.20 -2.20 0.65 -2.55 1.05 -0.35 0.35 -1.10 0.65 -1.65 0.65 -0.50 0 -0.95 0.25 -0.95 0.50 0 0.30 -0.55 0.50 -1.25 0.50 -0.80 0 -1.25 0.30 -1.25 0.75 0 0.55 -0.55 0.75 -1.85 0.75 -1.75 0 -1.75 -0.05 -0.95 -0.95z"/>
  <path d="M52 107.75 c0 -2.20 0.45 -2.20 1.90 0 l1.10 1.75 -1.50 0 c-1.40 0 -1.50 -0.15 -1.50 -1.75z"/>
  <path d="M134.25 107.20 c-1.35 -0.35 -3.45 -0.70 -4.60 -0.70 -1.80 0 -2.15 -0.15 -2.15 -1 0 -0.75 0.35 -1 1.40 -1 2.20 0.05 8.85 1.35 10.05 1.95 2.80 1.55 -0.20 2 -4.70 0.75z"/>
  <path d="M85.50 105.35 c0 -1.50 0.20 -1.85 1 -1.85 0.60 0 1 -0.35 1 -0.80 0 -1.30 1.40 -2.25 3 -2.10 l1.55 0.15 -3.30 3.25 -3.25 3.20 0 -1.85z"/>
  <path d="M118 106.35 c0 -0.85 0.95 -1.15 5.40 -1.65 2.95 -0.30 3.10 -0.25 3.10 0.75 0 0.85 -0.30 1.05 -1.60 1.05 -0.90 0 -2.85 0.15 -4.25 0.30 -2.20 0.30 -2.65 0.20 -2.65 -0.45z"/>
  <path d="M51.50 99.30 c0 -1.60 0.15 -1.80 1.25 -1.80 1.20 0 1.25 0.05 0.60 1.60 -0.95 2.30 -1.85 2.40 -1.85 0.20z"/>
  <path d="M100.50 93.75 c0 -0.90 0.25 -1.25 1 -1.25 0.55 0 1 -0.20 1 -0.50 0 -0.25 0.55 -0.50 1.25 -0.50 0.70 0 1.25 -0.20 1.25 -0.50 0 -0.25 0.80 -0.50 1.75 -0.50 0.95 0 1.75 0.20 1.75 0.50 0 0.35 -7.10 4 -7.80 4 -0.10 0 -0.20 -0.55 -0.20 -1.25z"/>
  <path d="M147.15 92.25 c-2.15 -0.90 -2.10 -1.75 0.10 -1.75 1.55 0 1.75 0.15 1.75 1.25 0 0.70 -0.05 1.25 -0.10 1.25 -0.10 -0.05 -0.90 -0.35 -1.75 -0.75z"/>
  <path d="M77.40 79.15 c-1.65 -0.40 -1 -1.65 0.85 -1.65 1.40 0 1.75 0.20 1.75 1 0 1 -0.70 1.15 -2.60 0.65z"/>
  <path d="M42.50 77.55 c0 -0.30 0.55 -1.15 1.25 -1.90 l1.20 -1.40 0.05 1.90 c0 1.65 -0.15 1.85 -1.25 1.85 -0.70 0 -1.25 -0.20 -1.25 -0.45z"/>
  <path d="M70.40 77.15 c-1.65 -0.40 -1 -1.65 0.85 -1.65 1.40 0 1.75 0.20 1.75 1 0 1 -0.70 1.15 -2.60 0.65z"/>
  <path d="M48.75 70 c0.15 -0.25 0.95 -0.95 1.75 -1.50 l1.50 -1.05 0 1.50 c0 1.45 -0.15 1.55 -1.80 1.55 -1 0 -1.65 -0.20 -1.45 -0.50z"/>
  <path d="M54.25 66 c0.15 -0.25 0.95 -0.95 1.75 -1.50 l1.50 -1.05 0 1.50 c0 1.45 -0.15 1.55 -1.80 1.55 -1 0 -1.65 -0.20 -1.45 -0.50z"/>
  <path d="M57.55 57.75 l-1 -1.75 1.45 0 c1.40 0 1.50 0.15 1.50 1.75 0 0.95 -0.20 1.75 -0.45 1.75 -0.25 0 -0.90 -0.80 -1.50 -1.75z"/>
 </g>
 <g fill="#ffab27">
  <path d="M62.50 129.75 l0 -1.75 4 0 4 0 0 1.75 0 1.75 -4 0 -4 0 0 -1.75z"/>
  <path d="M72.15 128.65 c0.15 -1.30 0.50 -2.45 0.80 -2.55 0.30 -0.10 0.55 -0.85 0.55 -1.65 0 -1.10 0.25 -1.45 1 -1.45 1.25 0 1.25 0.20 -0.10 4.50 -0.70 2.20 -1.35 3.50 -1.80 3.50 -0.55 0 -0.65 -0.50 -0.45 -2.35z"/>
  <path d="M59.35 127 c-1.40 -2.30 -3.60 -3.70 -10.10 -6.25 -9.80 -3.85 -11.95 -5 -13.50 -7.25 -2.15 -3.10 -2.75 -8.50 -0.95 -8.50 0.45 0 0.70 0.60 0.70 1.80 0 2.60 3 7.70 4.50 7.70 0.25 0 0.50 0.25 0.50 0.50 0 0.30 0.45 0.50 1 0.50 0.55 0 1 0.25 1 0.50 0 0.30 0.40 0.50 0.85 0.50 1.20 0 4.15 1.15 4.15 1.60 0 0.20 0.40 0.40 0.85 0.40 1.20 0 4.15 1.15 4.15 1.60 0 0.20 0.55 0.40 1.25 0.40 0.80 0 1.25 0.30 1.25 0.75 0 0.50 0.50 0.75 1.50 0.75 1.35 0 1.50 0.15 1.50 1.50 0 1.35 0.15 1.50 1.50 1.50 1.40 0 1.50 0.15 1.50 1.75 0 2.15 -0.50 2.20 -1.65 0.25z"/>
  <path d="M59.85 124.15 c-0.20 -0.15 -0.35 -1.05 -0.35 -1.95 0 -1.30 -0.25 -1.65 -1.25 -1.90 -2 -0.50 -9.70 -4.30 -12.65 -6.20 -4.05 -2.65 -5.10 -4.50 -5.10 -9.10 0 -2.85 0.35 -4.75 1.45 -7.90 0.80 -2.30 1.30 -4.65 1.15 -5.25 -0.40 -1.60 -2.15 -4 -2.60 -3.50 -0.20 0.20 -1.25 3.95 -2.30 8.30 -1.75 7.15 -2 7.85 -3 7.85 -1.10 0 -1.05 -0.20 1.60 -10.60 1.50 -5.85 2.70 -10.75 2.70 -10.85 0 -0.50 2.95 0.70 4.35 1.75 3.50 2.65 4.05 8.70 1.40 15.75 -0.90 2.55 -1.30 4.25 -1.05 5.15 0.75 3 6.35 6.85 15.25 10.45 4.20 1.65 4.90 1.80 6.15 1.30 0.80 -0.30 1.70 -1 2.05 -1.50 0.35 -0.45 1.05 -0.85 1.60 -0.80 1.05 0.10 0.55 0.95 10.80 -19 3.85 -7.50 6.90 -13.85 6.70 -14.15 -0.15 -0.25 0.15 -0.50 0.70 -0.50 0.85 0 1.05 0.30 1.05 1.50 0 1.60 -0.95 4 -1.60 4 -0.20 0 -0.40 0.45 -0.40 1 0 0.55 -0.15 1 -0.40 1 -0.40 0 -1.60 3.55 -1.60 4.75 0 0.40 -0.45 0.75 -1 0.75 -0.75 0 -1 0.35 -1 1.25 0 0.90 -0.25 1.25 -1 1.25 -0.80 0 -1 0.35 -1 1.50 0 1.50 -5.20 12.60 -6.05 12.90 -0.25 0.10 -0.45 0.50 -0.45 0.90 0 0.40 -0.20 0.70 -0.50 0.70 -0.25 0 -0.50 0.45 -0.50 1 0 0.55 -0.20 1 -0.50 1 -0.25 0 -0.50 0.75 -0.50 1.65 0 2.65 -2.90 4.85 -6.45 4.85 -1.95 0 -2.05 0.10 -2.05 1.50 0 1.35 -0.15 1.50 -1.65 1.50 -0.95 0 -1.85 -0.15 -2 -0.35z"/>
  <path d="M75.50 120 c0 -1.85 1.45 -5 2.35 -5 0.35 0 0.65 -0.55 0.65 -1.25 0 -1 0.25 -1.25 1.25 -1.25 0.70 0 1.25 0.10 1.25 0.20 0 0.65 -4.65 8.80 -5.05 8.80 -0.25 0 -0.45 -0.65 -0.45 -1.50z"/>
  <path d="M82 109.40 c0 -1.70 0.15 -1.90 1.25 -1.90 1.05 0 1.25 -0.25 1.25 -1.50 0 -0.95 0.25 -1.50 0.70 -1.50 0.35 0 0.80 -0.45 0.95 -1 0.15 -0.55 0.60 -1 1.05 -1 0.45 0 0.80 -0.35 0.80 -0.75 0 -0.50 0.50 -0.75 1.50 -0.75 1.25 0 1.50 -0.20 1.50 -1.25 0 -1.10 0.20 -1.25 1.75 -1.25 1.55 0 1.75 -0.15 1.75 -1.25 0 -1.10 0.20 -1.25 1.75 -1.25 0.95 0 1.75 0.15 1.75 0.40 0 0.20 -1.55 1.35 -3.35 2.60 -3 2 -7.70 6.45 -11.35 10.75 l-1.25 1.50 -0.05 -1.85z"/>
  <path d="M98.50 94.75 c0 -1 0.30 -1.35 1.50 -1.55 0.85 -0.20 1.50 -0.50 1.50 -0.75 0 -0.25 0.80 -0.45 1.75 -0.45 0.95 0 1.75 0.20 1.75 0.40 0 0.35 -5.60 3.60 -6.20 3.60 -0.20 0 -0.30 -0.55 -0.30 -1.25z"/>
  <path d="M149.65 93.20 c-3.05 -1.35 -3.40 -2.20 -0.90 -2.20 1.25 0 1.75 -0.20 1.75 -0.80 0 -0.45 -0.45 -0.90 -1 -1.05 -0.75 -0.20 -1 -0.70 -1 -1.95 0 -0.95 0.20 -1.70 0.45 -1.70 0.25 0 0.65 -1.50 0.85 -3.35 0.45 -3.20 0.40 -3.50 -0.80 -4.85 -2.60 -3 -5.65 -5.55 -6.90 -5.85 -0.75 -0.20 -1.75 -0.50 -2.20 -0.70 -0.70 -0.25 -0.90 -0.10 -0.90 0.65 0 0.55 -0.35 1.35 -0.75 1.80 -0.40 0.40 -0.75 1.20 -0.75 1.80 0 1 -0.20 1.10 -2.60 0.90 -2.70 -0.20 -15.85 -3.60 -17.60 -4.50 -0.80 -0.45 -0.90 -0.90 -0.65 -3.70 l0.30 -3.20 -1.75 0 c-0.95 0 -2.10 -0.20 -2.60 -0.45 -1.45 -0.70 -4.35 -1.55 -5.50 -1.55 -0.55 0 -1.15 -0.20 -1.30 -0.45 -0.15 -0.25 -1.15 -0.55 -2.15 -0.70 -2.65 -0.35 -4.75 -0.85 -5.90 -1.35 -0.55 -0.25 -1.65 -0.55 -2.50 -0.70 -2.70 -0.45 -4.50 -0.85 -5.50 -1.30 -0.55 -0.25 -1.65 -0.55 -2.50 -0.65 -1.35 -0.25 -4.30 -0.95 -10 -2.50 -1.10 -0.30 -2.20 -0.70 -2.50 -0.95 -0.25 -0.20 -1.20 -0.40 -2.05 -0.40 -0.90 0 -1.80 -0.20 -1.95 -0.50 -0.15 -0.25 -1.05 -0.50 -2 -0.50 -0.95 0 -1.80 -0.20 -1.95 -0.45 -0.15 -0.25 -1.15 -0.55 -2.15 -0.70 -2.65 -0.35 -4.75 -0.85 -5.90 -1.35 -0.55 -0.25 -1.75 -0.55 -2.60 -0.70 -3.95 -0.70 -4.95 -0.95 -5.55 -1.40 -0.40 -0.35 -0.60 -0.35 -0.60 0.05 0 0.30 0.25 0.55 0.50 0.55 0.30 0 0.50 0.25 0.50 0.50 0 0.90 2.40 3 3.45 3 0.55 0 2.75 0.55 4.90 1.20 2.15 0.65 4.35 1.30 4.90 1.45 4.55 1.10 21.95 6.05 23.65 6.65 1.90 0.70 2.10 0.95 2.10 2.50 0 1.50 -0.15 1.70 -1.25 1.70 -0.65 0 -4.65 -1 -8.85 -2.20 -4.20 -1.20 -10.35 -2.90 -13.65 -3.80 -7.75 -2.05 -8.40 -2.35 -12 -4.70 -3.25 -2.15 -4.25 -3.10 -5.90 -5.80 -0.90 -1.45 -1.10 -2.55 -1.20 -6.60 -0.05 -4.05 0.05 -4.90 0.65 -4.90 0.70 0 21.40 5.20 41.95 10.50 4.15 1.05 17.40 4.45 29.50 7.50 12.10 3.05 23.15 6.10 24.50 6.70 3.05 1.45 5.45 3.75 7 6.80 1.65 3.25 1.95 5.95 1.25 11.40 -0.45 3.95 -0.45 5.70 0.15 9.50 0.35 2.50 0.55 4.60 0.40 4.55 -0.15 0 -1.50 -0.55 -2.90 -1.25z"/>
  <path d="M107.50 90.75 c0 -1.10 0.25 -1.25 1.75 -1.25 0.95 0 1.75 -0.20 1.75 -0.40 0 -0.50 4.05 -1.45 8.15 -1.90 2.40 -0.30 2.85 -0.20 2.85 0.45 0 0.55 -0.60 0.90 -1.85 1.10 -3 0.50 -8.75 1.85 -10.75 2.55 -1.85 0.65 -1.90 0.65 -1.90 -0.55z"/>
  <path d="M138.50 89.75 c-1.50 -0.40 -3.60 -0.85 -4.60 -1 -1.30 -0.20 -1.90 -0.55 -1.90 -1.10 0 -0.65 0.45 -0.75 2.90 -0.45 5.50 0.60 8.10 1.40 8.10 2.40 0 1.05 -0.65 1.05 -4.50 0.15z"/>
  <path d="M100.50 79.25 c0 -1.65 0.10 -1.75 1.75 -1.75 1.65 0 1.75 0.10 1.75 1.75 0 1.65 -0.10 1.75 -1.75 1.75 -1.65 0 -1.75 -0.10 -1.75 -1.75z"/>
 </g>
 <g fill="#a19a92">
  <path d="M127.10 186.50 c-0.40 -1.05 -0.35 -1.30 0.45 -1.40 0.65 -0.10 0.95 -0.60 0.95 -1.40 0 -1.10 -0.20 -1.20 -2.50 -1.20 -2.35 0 -2.50 0.10 -2.50 1.25 0 1.55 -1.25 1.70 -1.65 0.15 -0.25 -0.85 -0.45 -0.95 -1.05 -0.45 -0.60 0.50 -0.75 0.40 -0.95 -0.55 -0.15 -0.75 -0.25 -0.50 -0.30 0.75 -0.05 1.25 -0.30 1.85 -0.75 1.85 -0.75 0 -1.65 -2.85 -1.10 -3.40 0.20 -0.15 -0.75 -0.55 -2.05 -0.90 -2.30 -0.60 -2.40 -0.55 -4.15 0.95 l-1.75 1.55 -0.15 -2.10 c-0.10 -1.15 -0.40 -2.10 -0.65 -2.10 -0.30 0 -1.25 0.55 -2.15 1.25 l-1.65 1.25 0.25 -2.50 c0.20 -2.20 0.10 -2.50 -0.60 -2.20 -0.50 0.20 -0.80 0.05 -0.80 -0.45 0 -0.40 -1.25 -1.80 -2.75 -3.05 -3.35 -2.85 -5.75 -6.35 -5.75 -8.35 0 -1.30 0.15 -1.45 1.60 -1.45 0.95 0 2.05 0.45 2.75 1.10 l1.15 1.05 0 -1.30 c0 -0.75 0.20 -1.35 0.40 -1.35 0.20 0 1.85 -1.45 3.65 -3.20 l3.20 -3.15 16.50 -0.35 c28.15 -0.55 42.55 -0.75 41.65 -0.50 -1.15 0.35 -1.15 0.50 0.45 2.40 l1.30 1.55 -2.30 0.25 -2.35 0.25 1 1.50 c1.40 2.15 1.25 2.40 -1.10 2 -1.75 -0.30 -2 -0.25 -1.75 0.45 0.20 0.45 0.50 1.15 0.70 1.60 0.25 0.70 0.05 0.80 -1.30 0.60 -1.35 -0.20 -1.75 0 -2.85 1.55 -0.75 1 -2.20 2.65 -3.35 3.65 -1.95 1.80 -2 1.85 -1.45 4 0.30 1.15 0.45 2.20 0.35 2.30 -0.45 0.50 -2.25 -1.30 -2.25 -2.25 0 -1.10 -0.05 -1.10 -1.45 -0.25 -0.80 0.45 -1.25 0.95 -1 1.15 0.55 0.35 1.25 3.95 0.75 3.95 -0.20 0 -1.10 -0.60 -2.05 -1.30 l-1.70 -1.25 -0.20 1.40 -0.20 1.40 -0.10 -1.35 -0.05 -1.30 -1.85 0.90 c-2.35 1.10 -7.95 2.50 -10.05 2.50 -1.50 0 -1.60 0.10 -1.60 1.75 0 2.05 -0.55 2.25 -1.50 0.45 l-0.70 -1.30 -1.10 2.45 c-1.05 2.35 -1.10 2.35 -1.60 1.15z"/>
  <path d="M135.55 184.55 l-1.10 -1.55 1.50 0 c1.60 0 2.05 0.95 1.10 2.40 -0.30 0.55 -0.70 0.30 -1.50 -0.85z"/>
  <path d="M113.80 184.20 c-0.55 -1.45 -0.30 -2.20 0.70 -2.20 1.15 0 1.35 1.55 0.30 2.45 -0.55 0.45 -0.75 0.40 -1 -0.25z"/>
  <path d="M139.85 183.35 c-0.60 -0.90 -0.60 -1.20 -0.05 -1.75 0.85 -0.80 2.20 -0.80 2.20 0.05 0 1.15 -0.60 2.85 -1 2.85 -0.20 0 -0.70 -0.50 -1.15 -1.15z"/>
  <path d="M101.70 177.90 c0.15 -0.65 0.30 -1.30 0.30 -1.50 0 -0.25 0.35 -0.40 0.75 -0.40 0.90 0 1 1.55 0.15 2.40 -0.95 0.95 -1.55 0.70 -1.20 -0.50z"/>
  <path d="M158.40 171.65 c-1.35 -0.35 -1.10 -1.65 0.30 -1.65 1 0 1.80 0.80 1.80 1.80 0 0.25 -0.90 0.20 -2.10 -0.15z"/>
  <path d="M92 168.50 c0.60 -1.15 2.50 -1.35 2.50 -0.30 0 0.35 -0.50 0.80 -1.10 1 -1.80 0.45 -1.95 0.35 -1.40 -0.70z"/>
  <path d="M89.20 165.15 c0.15 -0.40 0.30 -0.85 0.30 -0.95 0 -0.10 0.35 -0.20 0.75 -0.20 1.15 0 0.90 1.35 -0.30 1.65 -0.75 0.20 -0.95 0.10 -0.75 -0.50z"/>
  <path d="M92.85 163.15 c-0.20 -0.15 -0.35 -0.95 -0.35 -1.75 0 -0.90 -0.25 -1.40 -0.75 -1.40 -0.40 0 -0.75 -0.20 -0.75 -0.45 0 -0.20 -0.60 -0.30 -1.35 -0.15 -1.25 0.25 -1.35 0.15 -0.75 -0.55 0.60 -0.70 0.50 -0.85 -0.75 -1.10 -2.60 -0.60 -2.40 -0.65 2 -0.70 4.05 -0.05 4.35 0 4.35 0.95 0 0.55 0.30 1 0.70 1 0.85 0 1.30 1.10 1.30 3.05 0 1.30 -0.15 1.45 -1.65 1.45 -0.95 0 -1.85 -0.15 -2 -0.35z"/>
  <path d="M87.05 160.95 c0.55 -1.10 1.45 -1.25 1.45 -0.25 0 0.35 -0.45 0.80 -1 0.95 -0.85 0.20 -0.90 0.10 -0.45 -0.70z"/>
  <path d="M85 151.50 c0.70 -0.55 1.75 -1 2.40 -1 0.60 0 1.10 -0.20 1.10 -0.50 0 -0.25 0.80 -0.50 1.75 -0.50 1.50 0 1.75 0.15 1.75 1.20 0 1.35 -1.45 1.80 -5.70 1.80 l-2.55 0 1.25 -1z"/>
  <path d="M115.50 151 c0 -0.55 0.25 -1 0.50 -1 0.30 0 0.50 -0.55 0.50 -1.25 0 -0.75 -0.30 -1.25 -0.70 -1.25 -0.75 0 -1.30 -2.15 -1.30 -5.20 0 -3 0.50 -4.30 1.55 -4.30 0.80 0 0.85 0.35 0.60 3.45 -0.25 2.90 -0.10 3.80 0.80 5.65 0.55 1.20 1.50 2.70 2.05 3.30 0.55 0.55 1 1.10 1 1.20 0 0.10 -1.15 0.20 -2.50 0.25 -2.20 0.10 -2.50 0 -2.50 -0.85z"/>
  <path d="M135.05 149.95 c1.30 -1.40 2.95 -5.50 2.95 -7.40 0 -0.45 -0.45 -2.05 -1 -3.55 -0.55 -1.50 -1 -2.80 -1 -2.85 0 -0.45 -4.70 -3.15 -6.40 -3.70 -2.70 -0.80 -2.80 -1.95 -0.15 -1.95 1.10 0 2.30 0.30 2.65 0.65 1.55 1.60 2.75 1.30 5.75 -1.35 4.85 -4.30 9.35 -8.50 10.60 -9.90 0.85 -1.05 1.70 -1.40 3 -1.45 1 0 1.50 -0.15 1.20 -0.30 -0.35 -0.10 -0.65 -0.80 -0.65 -1.45 0 -0.85 -0.30 -1.20 -1 -1.20 -0.80 0 -1 -0.35 -1 -1.55 l0 -1.60 1.65 1.25 c2.60 2 7.10 7.65 9 11.30 2.35 4.60 4.65 12.15 3.45 11.40 -0.30 -0.20 -0.40 0.10 -0.20 0.80 0.25 0.95 0.35 1 0.50 0.30 0.20 -1.15 2.60 -1.25 2.60 -0.15 0 0.90 2.30 1.05 2.60 0.20 0.10 -0.30 0.60 -0.50 1.15 -0.40 0.75 0.15 0.50 0.50 -1.25 1.65 l-2.15 1.45 1.20 0.65 1.20 0.65 -1.35 0.05 c-1.25 0 -1.40 0.20 -1.40 1.70 0 0.95 -0.15 2.05 -0.30 2.50 -0.25 0.60 0 0.80 1 0.80 0.80 0 1.30 0.30 1.30 0.75 0 0.40 -0.35 0.75 -0.75 0.75 -0.90 0 -0.95 0.60 -0.15 1.40 0.45 0.45 0.40 0.60 -0.40 0.60 -0.55 0 -1.20 0.20 -1.50 0.45 -0.25 0.25 -7.70 0.55 -16.50 0.75 l-16.10 0.30 1.45 -1.55z"/>
  <path d="M125.40 149.15 c-0.50 -0.10 -0.90 -0.55 -0.90 -0.95 0 -0.50 0.65 -0.70 2.50 -0.70 1.80 0 2.50 0.20 2.50 0.70 0 1 -2.05 1.50 -4.10 0.95z"/>
  <path d="M88 146.50 c0 -1.95 0.05 -2 1.75 -2 1.70 0 1.75 0.05 1.75 2 0 1.95 -0.05 2 -1.75 2 -1.70 0 -1.75 -0.05 -1.75 -2z"/>
  <path d="M86 146 c0.80 -0.50 0.75 -0.60 -1.10 -1.40 -1.95 -0.80 -1.75 -1.60 0.35 -1.60 1.65 0 1.75 0.10 1.75 1.75 0 1.35 -0.20 1.75 -0.85 1.75 -0.75 0 -0.80 -0.10 -0.15 -0.50z"/>
  <path d="M121 145.05 c-1.45 -2.70 0.50 -7.10 3.65 -8.20 0.65 -0.25 0.85 -0.05 0.85 0.90 0 0.90 -0.25 1.25 -1 1.25 -0.65 0 -1 0.35 -1 1 0 0.55 -0.20 1 -0.50 1 -0.25 0 -0.50 1.15 -0.50 2.50 0 2.60 -0.60 3.20 -1.50 1.55z"/>
  <path d="M88 141.15 c0 -0.50 -0.15 -1.40 -0.30 -1.95 -0.20 -0.80 0 -1.15 0.75 -1.35 0.60 -0.15 1.05 -0.65 1.05 -1.20 0 -1.85 1.55 -6.95 3.20 -10.40 3.15 -6.70 9.15 -13.10 15.35 -16.45 l2.45 -1.35 0 1.75 c0 1.80 0 1.80 -2.25 1.80 -1.90 0 -2.25 0.15 -2.25 1 0 0.80 -0.35 1 -1.50 1 -1.25 0 -1.50 0.20 -1.50 1.25 0 0.80 -0.30 1.25 -0.75 1.25 -0.40 0 -0.75 0.30 -0.75 0.70 0 0.40 -0.55 1.15 -1.25 1.70 -0.70 0.55 -1.25 1.45 -1.25 2.05 0 0.70 -0.30 1.05 -1 1.05 -0.55 0 -1 0.35 -1 0.75 0 0.40 -0.20 0.75 -0.45 0.75 -0.25 0 -0.55 0.45 -0.70 1 -0.20 0.85 0 1 1.45 1 1.60 0 1.70 0.10 1.70 1.75 0 1.65 -0.10 1.75 -1.75 1.75 -1.65 0 -1.75 -0.10 -1.75 -1.60 l-0.05 -1.65 -0.70 1.25 c-0.40 0.70 -0.70 1.80 -0.75 2.45 0 0.65 -0.35 1.45 -0.80 1.80 -0.60 0.40 -0.95 1.95 -1.35 5.65 l-0.50 5.10 -1.65 0 c-1.30 0 -1.70 -0.20 -1.70 -0.85z"/>
  <path d="M128.50 137.80 c0 -0.95 0.20 -1.15 0.95 -0.95 0.55 0.15 1.35 0.70 1.85 1.20 0.85 0.90 0.80 0.95 -0.95 0.95 -1.60 0 -1.85 -0.15 -1.85 -1.20z"/>
  <path d="M68 137 c0 -0.80 0.35 -1 1.75 -1 1.40 0 1.75 0.20 1.75 1 0 0.80 -0.35 1 -1.75 1 -1.40 0 -1.75 -0.20 -1.75 -1z"/>
  <path d="M117.50 135.25 c0 -1.40 0.25 -1.90 1 -2.10 0.55 -0.15 1 -0.45 1 -0.70 0 -0.25 0.45 -0.45 0.95 -0.45 0.55 0 1.05 -0.25 1.15 -0.55 0.10 -0.30 1.25 -0.65 2.55 -0.80 1.85 -0.25 2.35 -0.15 2.35 0.45 0 0.50 -0.85 1 -2.25 1.40 -1.25 0.35 -3.25 1.50 -4.50 2.60 l-2.25 2 0 -1.85z"/>
  <path d="M60.95 135.40 c-0.45 -5.75 -0.45 -5.90 0.55 -5.90 0.90 0 1 0.35 1 3.25 0 2.55 -0.15 3.25 -0.75 3.25 -0.40 0 -0.75 -0.30 -0.80 -0.60z"/>
  <path d="M64.50 115.50 c0 -0.25 -0.55 -0.50 -1.25 -0.50 -0.70 0 -1.25 -0.20 -1.25 -0.50 0 -0.25 -0.55 -0.50 -1.25 -0.50 -0.70 0 -1.25 -0.20 -1.25 -0.50 0 -0.25 -0.55 -0.50 -1.25 -0.50 -1 0 -1.25 -0.25 -1.25 -1.25 l0 -1.25 2.40 0.95 c6.95 2.75 8.30 3.40 8.50 3.95 0.10 0.40 -0.40 0.60 -1.60 0.60 -1 0 -1.80 -0.20 -1.80 -0.50z"/>
  <path d="M142.15 111.10 c-1.45 -0.75 -2.65 -1.60 -2.65 -1.95 0 -0.35 -0.45 -0.65 -1 -0.65 -0.55 0 -1 -0.20 -1 -0.45 0 -0.20 -1.35 -0.55 -3 -0.75 -2.55 -0.30 -3 -0.50 -3 -1.30 0 -1.25 0.85 -1.25 5.40 0 5.95 1.65 11.10 4.35 11.10 5.80 0 1.10 -2.90 0.75 -5.85 -0.70z"/>
  <path d="M111.60 108.45 c0.25 -0.75 5.60 -2.75 8.85 -3.25 1.80 -0.30 2.05 -0.20 2.05 0.60 0 0.75 -0.75 1.15 -3.65 1.90 -5.20 1.35 -7.50 1.60 -7.25 0.75z"/>
  <path d="M123.50 105.75 c0 -0.90 2.90 -1.50 5.25 -1.05 1.05 0.20 1.75 0.65 1.75 1.05 0 0.60 -0.75 0.75 -3.50 0.75 -2.75 0 -3.50 -0.15 -3.50 -0.75z"/>
  <path d="M54.50 91.80 c0 -1.60 0.15 -1.80 1.25 -1.80 1.20 0 1.25 0.05 0.60 1.60 -0.95 2.30 -1.85 2.40 -1.85 0.20z"/>
  <path d="M40.55 81.15 c0.70 -1.90 2.10 -4.15 2.55 -4.15 0.20 0 0.40 0.80 0.40 1.75 0 0.95 -0.20 1.75 -0.50 1.75 -0.25 0 -0.50 0.45 -0.50 1 0 0.75 -0.35 1 -1.25 1 -1.10 0 -1.20 -0.10 -0.70 -1.35z"/>
  <path d="M62 77.50 c0 -1.40 0.15 -1.50 1.75 -1.50 2.20 0 2.20 0.45 0 1.90 l-1.75 1.10 0 -1.50z"/>
  <path d="M52.25 67.50 c0.15 -0.25 0.95 -0.95 1.75 -1.50 l1.50 -1.05 0 1.50 c0 1.45 -0.15 1.55 -1.80 1.55 -1 0 -1.65 -0.20 -1.45 -0.50z"/>
  <path d="M58.15 61.25 c0.30 -0.95 0.80 -1.75 1.20 -1.75 0.40 0 0.65 0.65 0.65 1.75 0 1.50 -0.15 1.75 -1.20 1.75 -1.15 0 -1.20 -0.10 -0.65 -1.75z"/>
  <path d="M53.65 54.25 l-1.40 -1.20 1.90 -0.05 c1.80 0 2.50 0.65 1.25 1.15 -0.50 0.20 -0.50 0.30 0 0.30 0.70 0.05 0.85 1.05 0.15 1.05 -0.30 0 -1.15 -0.55 -1.90 -1.25z"/>
 </g>
 <g fill="#faa107">
  <path d="M60.80 131.05 c-0.10 -0.15 -0.30 -0.90 -0.50 -1.65 -0.25 -1.05 -0.15 -1.40 0.45 -1.40 1.30 0 0.80 -1.55 -1.10 -3.45 -1.45 -1.40 -1.90 -1.60 -2.05 -1 -0.15 0.70 -0.50 0.65 -2.60 -0.45 -1.40 -0.70 -2.50 -1.50 -2.50 -1.80 0 -0.30 -3.35 -1.90 -7.35 -3.55 -4.05 -1.65 -7.95 -3.50 -8.70 -4.10 -3.25 -2.75 -3.15 -5.70 0.60 -20.25 2.20 -8.60 2.85 -10.40 3.55 -10.40 0.50 0 0.90 0.25 0.90 0.50 0 0.30 0.30 0.50 0.70 0.50 0.95 0 3.75 2.85 4.35 4.40 0.85 2.25 -0.50 12.60 -1.60 12.60 -0.25 0 -0.45 0.70 -0.45 1.50 0 0.85 -0.20 1.50 -0.50 1.50 -0.25 0 -0.50 0.35 -0.50 0.75 0 0.40 0.25 0.75 0.50 0.75 0.30 0 0.50 0.35 0.50 0.75 0 0.85 3.15 4.25 3.95 4.25 0.25 0 0.55 0.35 0.75 0.75 0.15 0.40 0.60 0.75 1.05 0.75 0.85 0 6.85 2.90 7.25 3.50 0.15 0.20 1.10 0.50 2.15 0.70 1 0.20 1.85 0.55 1.85 0.80 0 0.30 0.55 0.50 1.25 0.50 0.70 0 1.25 0.25 1.25 0.50 0 0.95 1 0.50 2.75 -1.20 1.05 -1.05 2.10 -1.60 2.60 -1.50 1 0.25 0.70 0.75 10.50 -18.45 4.15 -8.10 6.55 -12.30 6.95 -12.15 0.35 0.15 0.90 -0.10 1.20 -0.50 0.50 -0.55 0.50 -0.70 -0.05 -0.70 -1.05 0 -2.25 -2.90 -1.50 -3.65 0.30 -0.30 0.55 -0.95 0.55 -1.45 0 -0.70 0.40 -0.90 1.80 -0.90 l1.85 0 -0.25 2.50 c-0.15 1.40 -0.15 2.50 -0.05 2.50 0.15 0 0.85 -0.45 1.60 -0.95 3.75 -2.70 13.60 -6.25 20.15 -7.30 2.65 -0.40 2.75 -1.10 0.30 -1.75 -5.10 -1.30 -11.90 -3.15 -14.75 -4.05 -4.65 -1.45 -4.65 -1.45 -4.65 2.20 0 4.70 -0.30 5.35 -2.40 5.35 l-1.75 0 0.35 -2.60 c0.15 -1.45 0.30 -3.50 0.30 -4.50 0 -1.60 0.15 -1.90 1.15 -1.95 0.60 -0.05 -0.15 -0.35 -1.65 -0.75 -1.50 -0.35 -2.80 -0.90 -2.90 -1.15 -0.10 -0.30 -0.65 -0.55 -1.20 -0.55 -1.45 0 -12.60 -3.10 -12.95 -3.60 -0.15 -0.25 -1.15 -0.55 -2.25 -0.70 -3.20 -0.45 -8.20 -1.80 -8.20 -2.25 0 -0.25 -0.80 -0.45 -1.75 -0.45 -0.95 0 -1.75 -0.20 -1.75 -0.50 0 -0.25 -0.25 -0.50 -0.55 -0.50 -0.95 0 -6.40 -4 -7.65 -5.65 -1.75 -2.30 -2.80 -5.55 -2.75 -8.30 0.05 -1.25 0.15 -1.75 0.30 -1.05 0.70 4.80 0.55 4.50 2.65 4.50 1.05 0 2.05 0.20 2.20 0.45 0.15 0.25 1 0.55 1.90 0.70 0.90 0.20 2.45 0.45 3.40 0.60 0.95 0.20 2.20 0.50 2.75 0.75 1.15 0.50 3.25 1 5.90 1.35 1 0.15 2 0.45 2.15 0.70 0.15 0.25 1 0.45 1.95 0.45 0.95 0 1.85 0.25 2 0.50 0.15 0.30 1.05 0.50 1.95 0.50 0.85 0 1.80 0.20 2.10 0.40 0.25 0.25 1.35 0.65 2.45 0.95 5.70 1.55 8.65 2.25 10 2.50 0.85 0.10 1.95 0.40 2.50 0.65 1 0.45 2.80 0.85 5.50 1.30 0.85 0.15 1.95 0.45 2.50 0.70 1.15 0.50 3.25 1 5.90 1.35 1 0.15 2 0.45 2.15 0.70 0.15 0.25 0.75 0.45 1.30 0.45 1.15 0 4.05 0.85 5.50 1.55 0.50 0.25 1.80 0.45 2.90 0.45 1.20 0 2 0.25 2 0.60 0 0.35 0.25 0.30 0.65 -0.20 0.55 -0.70 1.45 -0.55 8.85 1.55 8.65 2.40 9.70 2.80 9.25 3.60 -0.15 0.25 0 0.30 0.40 0.15 0.40 -0.15 1.70 0.10 2.90 0.50 1.20 0.45 2.55 0.80 2.95 0.80 0.80 0 4.55 3.40 6.35 5.75 l1.15 1.45 0 -2.45 c0 -4.70 -3.55 -10 -7.90 -11.95 -1.05 -0.45 -10.75 -3.05 -21.60 -5.80 -21.70 -5.45 -47.90 -12.15 -62.90 -16 -5.25 -1.40 -9.90 -2.50 -10.30 -2.50 -0.40 0 -0.85 0.40 -0.95 0.90 -0.15 0.50 -0.25 0.30 -0.30 -0.55 -0.05 -1.15 0.15 -1.35 0.85 -1.15 0.45 0.15 6.60 1.70 13.60 3.50 7 1.80 17.70 4.50 23.75 6.05 6.05 1.55 21.25 5.40 33.75 8.55 12.50 3.20 23.45 6.10 24.30 6.55 2.80 1.30 5.55 4.05 6.95 7 1.40 2.95 1.45 4.45 0.60 15.15 0 0.40 0.10 1.70 0.30 2.90 l0.35 2.10 -1.70 0 c-0.95 0 -1.85 -0.20 -2 -0.40 -0.30 -0.50 -9 -3.30 -13.05 -4.20 -1.75 -0.40 -5.80 -0.65 -9.75 -0.60 -5.55 0.05 -7.60 0.30 -11.50 1.35 -8.25 2.20 -13.05 4.40 -19.50 9 -9.60 6.80 -16.10 15.15 -20.45 26.25 -1.30 3.25 -1.30 3.10 0.15 3.10 1.15 0 1.20 0.10 0.65 1.75 -0.65 2.25 -1.85 2.30 -1.90 0.15 l0 -1.65 -0.60 1.75 c-0.60 1.65 -0.55 1.75 0.55 1.90 0.80 0.10 1.10 0.40 0.90 0.95 -0.15 0.40 -0.30 1.15 -0.30 1.65 0 0.85 -0.50 0.95 -6.25 0.90 -3.45 0 -6.35 -0.15 -6.45 -0.35z m7.10 -1.40 c-0.80 -0.10 -2 -0.10 -2.75 0 -0.80 0.10 -0.15 0.20 1.35 0.20 1.50 0 2.15 -0.10 1.40 -0.20z m-0.50 -10.35 c1.60 -0.85 3.40 -2.70 2.95 -3.10 -0.15 -0.15 -0.50 0.20 -0.80 0.75 -0.75 1.40 -3.10 2.55 -5.20 2.55 -0.90 0 -3.10 -0.55 -4.85 -1.25 -1.75 -0.70 -3.25 -1.15 -3.35 -1.05 -0.10 0.10 1.20 0.75 2.95 1.45 3.60 1.45 6.35 1.65 8.30 0.65z m-19.70 -6.80 c-3.80 -2.45 -4.85 -3.95 -5.25 -7.50 l-0.30 -2.75 -0.10 2.50 c-0.05 1.95 0.25 2.95 1.15 4.30 1.15 1.70 5.95 5.40 7.05 5.45 0.25 0 -0.90 -0.90 -2.55 -2z m-3.50 -15 c0.25 -1 0.15 -0.95 -0.40 0.25 -0.35 0.85 -0.80 2.05 -1 2.75 -0.25 1 -0.15 0.95 0.40 -0.25 0.35 -0.80 0.80 -2.05 1 -2.75z m1.25 -4.50 c0 -0.95 -0.20 -2.15 -0.35 -2.65 -0.20 -0.45 -0.35 0.60 -0.35 2.35 0 1.75 0.15 2.95 0.35 2.65 0.20 -0.35 0.35 -1.40 0.35 -2.35z m-1.45 -4.95 c-0.50 -1 -3.10 -3.05 -3.80 -3.05 -0.25 0 0.40 0.55 1.35 1.25 1 0.65 1.95 1.55 2.10 2 0.20 0.40 0.45 0.75 0.60 0.75 0.15 0 0.05 -0.45 -0.25 -0.95z m91.25 -14.05 c-0.55 -0.25 -1.45 -0.45 -2 -0.45 l-1 0 1 0.45 c0.55 0.25 1.45 0.45 2 0.45 l1 0 -1 -0.45z m-4 -1 c-0.55 -0.25 -1.35 -0.45 -1.75 -0.45 -0.45 0 -0.40 0.20 0.25 0.45 0.55 0.25 1.35 0.45 1.75 0.45 0.45 0 0.40 -0.20 -0.25 -0.45z m-5 -1.35 c-1.35 -0.40 -3.65 -1.05 -5.10 -1.45 -1.60 -0.45 -2.65 -1.05 -2.80 -1.60 -0.20 -0.75 -0.25 -0.75 -0.30 0 0 0.45 0.25 1 0.60 1.25 0.80 0.50 8.40 2.60 9.35 2.55 0.40 0 -0.35 -0.35 -1.75 -0.75z m10.65 0.10 c-0.10 -0.05 -4.15 -1.20 -9.05 -2.50 -7.10 -1.95 -8.85 -2.60 -8.75 -3.20 0.20 -0.95 0.60 -0.90 7.40 1 9.05 2.55 10.45 3 10.70 3.60 0.10 0.35 0.25 0.40 0.25 0.10 0.10 -1.30 -1.35 -1.95 -8.85 -4 -4.45 -1.25 -8.45 -2.25 -8.85 -2.25 -0.40 0 -0.90 0.60 -1.05 1.30 -0.35 1.45 0.20 2 2.30 2.50 0.70 0.15 2.50 0.60 4 1.05 6.55 1.95 10.80 2.95 11.40 2.75 0.35 -0.10 0.60 -0.30 0.50 -0.35z m-49.90 -8.70 c-1.05 -0.60 -8.55 -2.65 -8.80 -2.40 -0.20 0.15 7.95 2.70 9.05 2.80 0.30 0 0.15 -0.15 -0.25 -0.40z m-10.25 -3.05 c-0.55 -0.25 -1.35 -0.45 -1.75 -0.45 -0.45 0 -0.40 0.20 0.25 0.45 0.55 0.25 1.35 0.45 1.75 0.45 0.45 0 0.40 -0.20 -0.25 -0.45z m-5.75 -1.55 c-1.80 -0.50 -3.45 -0.90 -3.75 -0.90 -0.80 0.10 4.90 1.85 6 1.85 0.55 0 -0.45 -0.40 -2.25 -0.95z m-6 -1.65 c-2.05 -0.75 -5.30 -1.45 -4.90 -1.05 0.35 0.35 4.85 1.60 5.90 1.65 0.40 0 -0.05 -0.25 -1 -0.60z m-7 -2.05 c-2.30 -0.90 -3.70 -0.90 -1.75 0 0.85 0.35 1.95 0.65 2.50 0.65 0.65 0 0.35 -0.25 -0.75 -0.65z"/>
  <path d="M75 120.80 c0 -1.60 0.15 -1.80 1.25 -1.80 1.20 0 1.25 0.05 0.60 1.60 -0.95 2.30 -1.85 2.40 -1.85 0.20z"/>
  <path d="M85 105.80 c0 -1.45 0.20 -1.80 1 -1.80 0.65 0 1 -0.35 1 -1 0 -0.80 0.35 -1 1.55 -1 1.75 0 1.80 -0.05 -1.65 3.60 l-1.90 2 0 -1.80z"/>
  <path d="M103.50 92.25 c0 -1 0.25 -1.25 1.25 -1.25 0.70 0 1.25 -0.20 1.25 -0.50 0 -0.25 0.80 -0.50 1.75 -0.50 0.95 0 1.75 0.20 1.75 0.45 0 0.60 -0.25 0.75 -3.40 2 l-2.60 1.05 0 -1.25z"/>
  <path d="M144.65 91.35 c-3.50 -1.20 -4.15 -2.35 -1.40 -2.35 0.95 0 1.75 0.25 1.75 0.50 0 0.30 0.70 0.50 1.50 0.50 1.25 0 1.50 0.20 1.50 1.25 0 0.70 -0.05 1.20 -0.10 1.20 -0.10 -0.05 -1.55 -0.55 -3.25 -1.10z"/>
  <path d="M136.90 89.15 c-1.65 -0.40 -1 -1.65 0.85 -1.65 1.40 0 1.75 0.20 1.75 1 0 1 -0.70 1.15 -2.60 0.65z"/>
  <path d="M128.90 64.10 c-5.45 -1.45 -8.40 -2.50 -8.40 -2.95 0 -0.35 0.55 -0.65 1.20 -0.65 1.40 0 4.30 0.95 4.30 1.40 0 0.20 0.95 0.40 2.15 0.45 3.30 0.20 9.55 2.30 9.75 3.30 0.20 1.05 0.85 1.20 -9 -1.55z"/>
 </g>
 <g fill="#928a83">
  <path d="M122.55 185.85 c-0.30 -0.80 -0.55 -1.75 -0.55 -2.15 0 -1.20 -0.90 -0.75 -2.20 1.10 -1.30 1.95 -1.50 1.85 -2 -1 l-0.35 -1.95 -1.70 1.65 -1.70 1.65 -0.35 -2.05 c-0.20 -1.15 -0.45 -2.10 -0.65 -2.10 -0.15 0 -0.95 0.60 -1.80 1.30 l-1.50 1.30 -0.15 -2.30 c-0.15 -2.45 -0.55 -2.80 -1.60 -1.50 -0.40 0.40 -1.10 1 -1.65 1.30 -0.95 0.50 -1 0.40 -0.75 -1.80 0.15 -1.25 0.15 -2.30 -0.05 -2.30 -0.15 0 -1.05 0.45 -1.95 1 -0.90 0.55 -1.70 1 -1.80 1 -0.10 0 -0.05 -1.05 0.10 -2.30 0.25 -2.20 0.20 -2.30 -0.80 -1.75 -0.55 0.30 -1.60 0.75 -2.30 1.05 l-1.25 0.45 0.75 -2.05 c0.40 -1.15 0.60 -2.15 0.45 -2.30 -0.15 -0.15 -1.10 0 -2.10 0.30 -1 0.30 -1.95 0.50 -2.05 0.40 -0.10 -0.10 0.20 -0.90 0.60 -1.75 1.15 -2.20 1 -2.55 -0.80 -2.20 l-1.55 0.30 0.25 -2 0.30 -2 -2.30 0.25 -2.25 0.25 1.05 -1.75 c0.60 -1 1.10 -1.90 1.10 -2.10 0 -0.15 -0.90 -0.30 -2 -0.30 -2.30 0 -2.45 -0.40 -0.75 -2 0.65 -0.60 1.15 -1.40 1.10 -1.70 -0.05 -0.40 3.25 -0.60 11.40 -0.70 l11.50 -0.15 -1.50 1 c-0.80 0.50 -2.20 1.70 -3 2.60 -0.85 0.95 -2.40 2.45 -3.40 3.35 -1.60 1.35 -1.80 1.75 -1.35 2.60 0.60 1.10 6.85 5.65 9.25 6.75 5.80 2.60 7.80 3 15.35 3 5.20 0 7.55 -0.20 8 -0.60 0.30 -0.35 1.10 -0.65 1.70 -0.65 0.65 0 1.25 -0.20 1.40 -0.45 0.15 -0.20 0.90 -0.55 1.70 -0.70 1.55 -0.30 7.50 -4.20 10 -6.55 2.10 -1.95 5.95 -7.25 6.90 -9.55 0.70 -1.75 1.80 -2.15 3.75 -1.35 0.70 0.30 0.55 0.80 -1.15 3.60 -5.85 9.65 -12.05 14.75 -21.65 17.90 -4.05 1.35 -5.80 1.60 -11.30 1.65 -8.95 0.10 -18.15 -3.35 -24.15 -8.95 -1.15 -1.05 -2.90 -2.65 -3.95 -3.60 l-1.95 -1.70 1.60 2.35 c2.85 4.25 8.40 8.30 14.80 10.75 9.40 3.60 21.55 3.20 29.95 -1 8.65 -4.35 14.20 -9.80 18.10 -17.75 1.70 -3.55 1.80 -3.65 3.55 -3.60 1.40 0 1.60 0.10 0.90 0.40 -0.65 0.25 -0.80 0.50 -0.40 0.75 0.30 0.15 1.05 1 1.65 1.85 l1.10 1.55 -2.35 -0.15 c-1.25 -0.10 -2.30 0 -2.30 0.20 0 0.25 0.60 1.20 1.35 2.20 l1.35 1.75 -2.35 -0.35 c-2.70 -0.40 -2.85 -0.15 -1.30 2.50 l1.10 1.80 -1.45 -0.30 c-0.80 -0.20 -1.85 -0.45 -2.30 -0.60 -1.10 -0.25 -1.15 0.45 -0.10 2.40 0.40 0.85 0.70 1.65 0.60 1.75 -0.15 0.10 -1 -0.05 -1.95 -0.30 -2.35 -0.70 -2.60 -0.65 -2.20 0.40 0.20 0.45 0.55 1.45 0.75 2.20 l0.40 1.35 -1.95 -0.80 c-1.10 -0.40 -2.10 -0.65 -2.30 -0.50 -0.15 0.20 -0.05 1.20 0.25 2.30 l0.50 2 -1.95 -0.95 c-1.05 -0.55 -2.05 -1 -2.25 -1 -0.15 0 -0.15 1.05 0.05 2.30 l0.30 2.30 -1.90 -1.30 -1.90 -1.30 -0.15 2.25 c-0.10 1.25 -0.35 2.25 -0.55 2.25 -0.20 0 -0.90 -0.55 -1.55 -1.25 -0.65 -0.70 -1.35 -1.25 -1.55 -1.25 -0.20 0 -0.50 0.90 -0.70 2.05 l-0.35 2.05 -1.35 -1.30 c-0.75 -0.70 -1.50 -1.30 -1.70 -1.30 -0.15 0 -0.55 0.95 -0.85 2.10 l-0.60 2.10 -1.25 -1.60 c-0.65 -0.90 -1.40 -1.60 -1.60 -1.60 -0.20 0 -0.70 0.95 -1 2.10 l-0.65 2.10 -1.30 -2.15 -1.30 -2.20 -0.90 2.10 c-1 2.30 -1.45 2.35 -2.40 0.05 -0.35 -0.80 -0.75 -1.50 -0.95 -1.50 -0.20 0 -0.85 0.85 -1.40 1.85 l-1.10 1.90 -0.50 -1.40z m-31.85 -25.60 c-0.20 -0.40 -0.60 -0.75 -1 -0.75 -0.40 0 -0.70 0.35 -0.70 0.75 0 0.40 0.45 0.75 1 0.75 0.65 0 0.90 -0.25 0.70 -0.75z"/>
  <path d="M85.75 150.90 l1.50 -1.40 -1.25 -0.35 -1.25 -0.35 1.50 -0.35 c1.45 -0.30 1.45 -0.35 -0.35 -0.40 -2.20 -0.05 -2.40 -0.60 -0.65 -1.55 1.75 -0.95 1.55 -1.35 -0.75 -2.05 -2.25 -0.70 -2.55 -1.20 -0.85 -1.65 1.85 -0.50 2.35 -0.35 2.35 0.70 0 0.55 0.25 1 0.50 1 0.30 0 0.50 -0.55 0.50 -1.25 0 -0.70 -0.25 -1.25 -0.55 -1.25 -0.25 0 -0.40 -0.20 -0.20 -0.50 0.15 -0.25 -0.40 -0.80 -1.25 -1.25 -2 -1.05 -1.90 -1.75 0.20 -1.75 1.40 0 1.75 0.20 1.95 1.15 0.20 0.95 0.20 0.90 0.30 -0.25 0.05 -1 0.30 -1.40 1 -1.40 0.75 0 1 -0.50 1.30 -2.25 1.20 -8.10 6.60 -17.05 13.85 -22.85 9.55 -7.70 23.70 -10.10 35.90 -6.05 5.15 1.65 14.95 8.05 14.20 9.20 -0.15 0.25 0 0.40 0.35 0.35 0.35 -0.10 0.65 0.30 0.70 0.85 0 0.55 0.25 1 0.60 1 0.30 0 0.75 0.20 1 0.45 0.25 0.25 0.15 0.30 -0.20 0.10 -0.35 -0.20 -0.65 -0.15 -0.65 0.15 0 0.50 0.95 1.30 1.60 1.30 0.15 0 0.50 0.20 0.75 0.45 0.25 0.25 0.15 0.30 -0.20 0.10 -0.35 -0.20 -0.65 -0.25 -0.65 -0.05 0 0.60 2.65 4.25 2.95 4.05 0.15 -0.10 0.35 0.30 0.40 0.85 0.05 0.60 0.80 3.10 1.65 5.60 1.80 4.95 2.45 11.65 1.65 16.75 -0.40 2.65 -0.45 2.75 -2.10 2.90 -1.60 0.15 -1.70 0.10 -1.40 -1.25 0.80 -4 0.90 -7.95 0.35 -11.85 -0.35 -2.35 -0.80 -4.45 -1.05 -4.60 -0.25 -0.15 -0.45 -0.65 -0.45 -1.15 0 -1.20 -1.75 -4.75 -4 -8.05 -3.15 -4.65 -2.90 -4.65 -7.60 -0.15 -2.30 2.20 -5.25 5 -6.65 6.20 -4.90 4.30 -5.40 4.90 -4.65 5.85 0.35 0.45 -0.25 0.15 -1.35 -0.70 -3.10 -2.40 -5 -3.20 -7.65 -3.20 -3.25 0 -7.10 1.95 -8.70 4.40 -2.85 4.30 -2.95 7.35 -0.35 12.05 0.85 1.45 1.40 2.75 1.25 2.95 -0.35 0.35 -7.30 0.55 -22.55 0.75 l-12.50 0.15 1.50 -1.40z"/>
  <path d="M164.35 150.70 c-0.15 -0.20 -0.15 -0.70 0.10 -1.15 0.65 -1.30 1 -7.10 0.55 -9.80 -0.25 -1.70 -0.20 -2.60 0.20 -2.85 1.10 -0.75 5.80 -0.25 5.80 0.60 0 0.20 -0.80 0.75 -1.75 1.30 -0.95 0.50 -1.75 1.05 -1.75 1.25 0 0.15 0.95 0.70 2.15 1.15 l2.10 0.85 -2.25 1.15 -2.20 1.20 2.20 1.10 2.25 1.15 -1.50 0.65 c-0.80 0.35 -1.95 0.65 -2.50 0.70 -0.85 0.05 -0.75 0.25 0.75 1.50 l1.70 1.50 -2.75 0 c-1.55 0 -2.95 -0.15 -3.10 -0.30z"/>
  <path d="M123.05 147.75 c-6 -5.05 0.60 -14.35 7.30 -10.25 3.70 2.25 4.15 6.95 0.95 9.85 -2.15 2 -2.80 2.05 -2.80 0.40 0 -1 0.25 -1.25 1.20 -1.25 1.05 0 1.25 -0.30 1.55 -2.60 0.25 -1.80 0.20 -2.65 -0.20 -2.80 -0.30 -0.10 -0.55 -0.75 -0.55 -1.40 0 -1.10 -0.20 -1.20 -2.65 -1.20 -2.05 0 -2.75 0.20 -3.25 1 -0.35 0.55 -0.95 1 -1.35 1 -0.55 0 -0.75 0.55 -0.75 2 0 1.10 0.25 2 0.50 2 0.30 0 0.50 0.40 0.50 0.95 0 0.65 0.45 1 1.50 1.25 1.05 0.20 1.50 0.55 1.50 1.30 0 1.40 -1.60 1.30 -3.45 -0.25z"/>
  <path d="M67.50 137 c0 -0.80 0.35 -1 1.50 -1 0.85 0 1.50 -0.20 1.50 -0.50 0 -0.25 0.45 -0.50 1.05 -0.50 0.80 0 1 0.25 0.85 1.40 -0.15 1.25 -0.35 1.35 -2.50 1.45 -2.10 0.10 -2.40 0 -2.40 -0.85z"/>
  <path d="M71.50 131.55 c0 -0.90 0.30 -1.55 0.80 -1.75 1.15 -0.45 1.35 -0.10 0.95 1.65 -0.45 2 -1.75 2.05 -1.75 0.10z"/>
  <path d="M60.60 130.50 c-0.45 -1.90 -0.45 -2 0.70 -2 1.05 0 1.20 0.20 1.20 2 0 1.35 -0.20 2 -0.70 2 -0.40 0 -0.90 -0.90 -1.20 -2z"/>
  <path d="M67.65 117.15 c-0.35 -0.10 -0.65 -0.75 -0.65 -1.40 0 -1.10 0.10 -1.15 1.50 -0.70 1.65 0.60 1.80 0.95 0.90 1.85 -0.65 0.65 -0.80 0.65 -1.75 0.25z"/>
  <path d="M56.50 86.80 c0 -1.60 0.15 -1.80 1.25 -1.80 1.20 0 1.25 0.05 0.60 1.60 -0.95 2.30 -1.85 2.40 -1.85 0.20z"/>
  <path d="M39.70 84.30 c-0.30 -0.75 2.20 -6.30 2.85 -6.30 0.25 0 0.45 0.80 0.45 1.75 0 1.20 -0.25 1.75 -0.75 1.75 -0.50 0 -0.75 0.55 -0.75 1.75 0 1.25 -0.20 1.75 -0.75 1.75 -0.45 0 -0.90 -0.30 -1.05 -0.70z"/>
  <path d="M58.50 81.75 c0 -1.55 0.15 -1.75 1.25 -1.75 1.45 0 1.50 0.10 0.50 2 -1.05 2 -1.75 1.90 -1.75 -0.25z"/>
  <path d="M83.90 81.15 c-1.65 -0.40 -1 -1.65 0.85 -1.65 1.40 0 1.75 0.20 1.75 1 0 1 -0.70 1.15 -2.60 0.65z"/>
  <path d="M73.15 77.90 c-2.05 -0.65 -2.20 -1.90 -0.25 -1.90 2.35 0 3.60 0.55 3.60 1.55 0 1.05 -0.85 1.15 -3.35 0.35z"/>
  <path d="M64.50 76 c0 -0.80 0.35 -1 1.75 -1 2 0 2.45 1.20 0.65 1.70 -1.90 0.50 -2.40 0.35 -2.40 -0.70z"/>
  <path d="M44.50 74.50 c1.55 -2.20 2 -2.25 2 -0.30 0 1.65 -0.10 1.80 -1.55 1.80 l-1.50 0 1.05 -1.50z"/>
 </g>
 <g fill="#807b77">
  <path d="M122.45 185.10 c-0.30 -1.15 -0.80 -2.10 -1 -2.10 -0.25 0 -0.90 0.70 -1.55 1.50 -1.25 1.70 -1.65 1.50 -2.10 -1 -0.30 -1.65 -0.25 -1.65 0.30 -0.50 0.35 0.70 0.65 1.35 0.75 1.45 0.10 0.15 0.60 -0.25 1.15 -0.85 1.35 -1.40 1.90 -1.40 2.50 0.15 0.60 1.55 0.75 1.55 2.15 0.10 0.60 -0.65 0.85 -0.80 0.55 -0.35 -0.30 0.40 -0.90 1.40 -1.35 2.25 l-0.75 1.45 -0.65 -2.10z"/>
  <path d="M126.80 185.50 c-1.05 -2.20 -1 -2.55 0.20 -1 l0.95 1.25 0.50 -1.25 c0.25 -0.70 0.50 -0.90 0.50 -0.50 0 0.40 -0.30 1.30 -0.65 1.95 l-0.65 1.20 -0.85 -1.65z"/>
  <path d="M131.35 185.30 c-1.05 -1.55 -1.10 -2.40 -0.10 -1.10 0.35 0.50 0.90 0.75 1.20 0.55 0.65 -0.35 0.70 0.25 0.10 1.15 -0.30 0.50 -0.60 0.35 -1.20 -0.60z"/>
  <path d="M135.85 184.85 c-1 -1.55 -1.15 -2.45 -0.15 -1.10 0.65 0.90 0.65 0.90 1.20 -0.05 0.65 -1.10 0.75 -0.05 0.15 1.50 -0.35 0.85 -0.40 0.80 -1.20 -0.35z"/>
  <path d="M114 184.65 c0 -0.25 0.60 -1 1.30 -1.70 1.20 -1.05 1.30 -1.10 0.80 -0.15 -0.65 1.25 -2.10 2.50 -2.10 1.85z"/>
  <path d="M139.45 182.65 c-0.95 -1.05 -1.25 -1.55 -0.70 -1.15 0.55 0.40 1.20 1.05 1.45 1.45 0.35 0.55 0.60 0.40 1.10 -0.75 l0.65 -1.45 -0.30 1.75 c-0.15 0.95 -0.35 1.80 -0.40 1.85 -0.05 0.10 -0.85 -0.70 -1.80 -1.70z"/>
  <path d="M109.65 182.70 c0 -0.40 0.15 -0.60 0.25 -0.45 0.15 0.15 0.80 -0.25 1.45 -0.85 0.60 -0.60 1.25 -0.95 1.35 -0.85 0.15 0.15 -0.50 0.85 -1.40 1.55 -1.10 0.90 -1.65 1.10 -1.65 0.60z"/>
  <path d="M143.60 181.50 c-0.90 -0.85 -1.30 -1.50 -0.90 -1.50 0.35 0 0.95 0.35 1.30 0.75 0.55 0.65 0.75 0.65 1.05 0.15 0.25 -0.35 0.45 -0.40 0.50 -0.15 0 0.30 0.10 0.90 0.20 1.40 0.25 1.20 -0.25 1.05 -2.15 -0.65z"/>
  <path d="M105.65 179.40 c0.20 -1.40 0.10 -2.45 -0.20 -2.60 -0.25 -0.10 -0.20 -0.15 0.15 -0.10 0.40 0.10 0.60 0.80 0.50 1.95 -0.10 1.50 0 1.80 0.65 1.55 0.40 -0.15 0.75 -0.50 0.75 -0.70 0 -0.20 0.35 -0.55 0.80 -0.70 1.10 -0.45 0.40 0.50 -1.40 1.75 l-1.55 1.15 0.30 -2.30z"/>
  <path d="M147.80 179.50 c-1.10 -0.85 -1.85 -1.50 -1.65 -1.50 0.65 0 3.85 2.10 3.85 2.55 0 0.60 0 0.60 -2.20 -1.05z"/>
  <path d="M101.85 177.10 c0.40 -2.40 0.65 -2.70 0.65 -0.60 0 1.40 0.10 1.55 0.75 1 0.45 -0.35 0.90 -0.50 1.05 -0.35 0.15 0.15 -0.40 0.65 -1.20 1.05 l-1.55 0.80 0.30 -1.90z"/>
  <path d="M151.70 177.20 c-0.80 -0.65 -0.80 -0.75 -0.05 -0.50 0.70 0.20 0.85 -0.05 0.85 -1.30 0 -1.95 0.25 -1.70 0.70 0.75 0.40 2 0 2.30 -1.50 1.05z"/>
  <path d="M98.35 174.20 c0.40 -1.25 0.85 -2.15 0.95 -2.05 0.15 0.10 0 0.85 -0.30 1.60 -0.50 1.30 -0.45 1.35 0.85 1 1.65 -0.40 1.45 -0.15 -0.70 0.95 l-1.60 0.80 0.80 -2.30z"/>
  <path d="M156 174.70 c-0.70 -0.45 -0.85 -0.65 -0.30 -0.50 0.70 0.25 0.85 0.15 0.55 -0.55 -0.20 -0.50 -0.40 -1.35 -0.45 -1.90 -0.05 -0.85 0.25 -1 1.85 -0.90 1.55 0.10 1.90 0 1.65 -0.60 -0.85 -2.05 -0.75 -2.30 0.20 -0.60 0.60 1.10 1 2.05 0.90 2.15 -0.10 0.10 -1.05 -0.10 -2.05 -0.40 -1 -0.30 -1.95 -0.45 -2.10 -0.30 -0.15 0.15 0.05 1.20 0.45 2.30 0.45 1.15 0.70 2.10 0.65 2.10 -0.05 -0.05 -0.65 -0.40 -1.35 -0.80z"/>
  <path d="M94.50 172.65 c0.05 -0.25 0.35 -0.95 0.75 -1.65 1.45 -2.55 1 -2.85 -2.90 -1.70 -0.85 0.25 -0.85 0.15 0.10 -1.75 0.60 -1.10 1.05 -2.15 1.05 -2.25 0 -0.15 -1.05 -0.15 -2.35 0.05 l-2.35 0.30 1.10 -1.50 c1.55 -2.15 1.40 -2.55 -0.95 -2.75 l-2.05 -0.15 1.45 -1.85 c2.05 -2.70 3.10 -2.45 4.80 1.10 0.80 1.65 2.45 4.20 3.65 5.60 l2.25 2.65 -1.35 1.05 c-1.25 1.05 -1.25 1.10 -0.40 1.65 0.85 0.55 0.80 0.55 -0.25 0.25 -0.75 -0.20 -1.05 -0.10 -0.85 0.20 0.15 0.25 -0.05 0.65 -0.50 0.80 -1 0.40 -1.20 0.40 -1.20 -0.05z"/>
  <path d="M161.75 168 c-0.80 -0.20 -1.10 -0.40 -0.60 -0.45 1.05 -0.05 1.05 -0.20 0.05 -2.20 -0.45 -0.90 -0.60 -1.35 -0.35 -1.10 0.55 0.55 2.80 4.30 2.55 4.20 -0.10 -0.05 -0.80 -0.25 -1.65 -0.45z"/>
  <path d="M98.40 166.15 c-0.65 -0.80 -1.70 -2.20 -2.25 -3.15 -1.75 -2.95 -3.15 -5.50 -3.15 -5.75 0 -0.15 0.80 -0.25 1.75 -0.25 1.40 0 1.85 0.25 2.25 1.20 0.55 1.45 3.90 6.40 4.70 6.90 0.30 0.20 0.20 0.70 -0.40 1.35 -1.20 1.35 -1.35 1.30 -2.90 -0.30z"/>
  <path d="M163.25 164 c-2 -0.35 -2 -0.35 -0.30 -0.45 l1.65 -0.05 -0.85 -1.30 c-1.35 -2.05 -0.65 -1.80 0.90 0.35 0.80 1.05 1.25 1.90 1 1.90 -0.20 -0.05 -1.30 -0.25 -2.40 -0.45z"/>
  <path d="M165.75 159.50 c0.20 -0.30 0.05 -0.95 -0.30 -1.40 -0.40 -0.45 -0.05 -0.30 0.70 0.35 1.60 1.45 1.65 1.55 0.30 1.55 -0.55 0 -0.85 -0.20 -0.70 -0.50z"/>
  <path d="M85.80 151.10 c1.50 -1.30 1.35 -1.65 -1.20 -2.40 l-1.85 -0.55 1.90 -1.10 c1 -0.65 1.85 -1.30 1.85 -1.50 0 -0.25 -0.90 -0.80 -2 -1.30 l-2 -0.90 2.05 -0.95 c1.75 -0.75 1.95 -1 1.45 -1.65 -0.35 -0.40 -0.90 -0.75 -1.25 -0.75 -0.35 0 -0.90 -0.30 -1.20 -0.70 -0.75 -0.90 0.25 -1.30 3.20 -1.30 l2.15 0 0 4.90 c0 2.65 0.25 5.80 0.50 6.95 l0.45 2.05 -2.70 0.20 -2.70 0.15 1.35 -1.15z"/>
  <path d="M90.55 147.75 c-2.45 -16.25 7 -32.90 22.15 -38.90 4.80 -1.95 9.60 -2.85 14.95 -2.85 9 0 17.60 3.40 24.60 9.70 l2 1.80 -1.20 1 c-1 0.90 -1.30 0.95 -2 0.35 -3.65 -3.05 -6.20 -4.90 -8.55 -6.20 -2.55 -1.40 -3.50 -1.70 -8.80 -3.10 -1.15 -0.30 -4.35 -0.55 -7.10 -0.55 -8.65 0 -16.05 3.10 -22.95 9.65 -6.10 5.80 -9.90 13.80 -10.50 21.95 -0.30 4.15 0.60 10.40 1.55 11 0.30 0.20 -0.35 0.40 -1.50 0.40 l-2.05 0 -0.60 -4.25z"/>
  <path d="M166.40 150.40 c0.60 -0.40 0.95 -0.85 0.80 -1.05 -0.85 -0.80 0.65 -0.25 1.80 0.70 1 0.85 1.05 0.95 0.25 0.70 -1.25 -0.45 -1.75 -0.45 -3 -0.05 -0.80 0.30 -0.75 0.20 0.15 -0.30z"/>
  <path d="M127.50 148 c0 -0.80 0.35 -1 1.75 -1 1.95 0 2.15 0.30 0.90 1.30 -1.35 1 -2.65 0.85 -2.65 -0.30z"/>
  <path d="M169.20 147.05 c0.25 -0.35 0 -0.90 -0.50 -1.30 -1.40 -1.05 -0.45 -0.90 1.40 0.25 0.90 0.55 1.40 1 1.05 1 -0.30 0 -0.95 0.15 -1.45 0.35 -0.60 0.20 -0.75 0.15 -0.50 -0.30z"/>
  <path d="M121.50 145.70 c-1 -1.80 -0.75 -5.15 0.45 -6.35 0.95 -0.95 0.95 -0.95 0.95 3.35 0 2.35 -0.15 4.30 -0.35 4.30 -0.20 0 -0.70 -0.60 -1.05 -1.30z"/>
  <path d="M131.50 142.75 c0 -2.05 0.20 -2.75 0.70 -2.75 0.90 0 1.45 2.40 1 4.20 -0.15 0.70 -0.60 1.30 -1 1.30 -0.50 0 -0.70 -0.75 -0.70 -2.75z"/>
  <path d="M168.80 142.75 c0.70 -1.10 0.70 -1.20 -0.30 -1.50 -0.60 -0.20 -1 -0.45 -0.85 -0.55 0.10 -0.10 1.05 0.15 2.10 0.55 1 0.45 1.80 0.85 1.70 0.95 -0.10 0.10 -0.90 0.50 -1.80 0.90 l-1.60 0.80 0.75 -1.15z"/>
  <path d="M129 139 c0 -0.25 -1.10 -0.50 -2.50 -0.50 -3 0 -3.55 -1.25 -0.80 -1.75 1.85 -0.35 3.40 -0.05 5.20 1.05 1.55 1 1.40 1.70 -0.40 1.70 -0.80 0 -1.50 -0.20 -1.50 -0.50z"/>
  <path d="M168.85 138.55 c0.60 -0.50 0.95 -1.05 0.80 -1.25 -0.20 -0.15 0.05 -0.30 0.50 -0.30 1.30 0 1 0.65 -0.80 1.65 -1.60 0.85 -1.60 0.85 -0.50 -0.10z"/>
  <path d="M62.90 137.45 c-1.45 -0.80 -1.05 -1.45 0.85 -1.45 1.40 0 1.75 0.20 1.75 1 0 1.10 -1.20 1.30 -2.60 0.45z"/>
  <path d="M67 136.95 c0 -0.80 0.40 -0.95 2.70 -0.95 2.35 0 2.70 0.10 2.45 0.90 -0.15 0.70 -0.75 0.90 -2.70 0.95 -2.10 0.05 -2.45 -0.10 -2.45 -0.90z"/>
  <path d="M71 133.25 c0 -1.40 0.20 -1.75 1 -1.75 1.05 0 1.20 0.50 0.70 2.40 -0.50 1.80 -1.70 1.35 -1.70 -0.65z"/>
  <path d="M59.90 118.35 c-2 -0.80 -1.80 -1.85 0.35 -1.85 1.55 0 1.75 0.15 1.75 1.25 0 1.35 -0.10 1.40 -2.10 0.60z"/>
  <path d="M63 114.25 c0 -1.20 0.05 -1.25 1.60 -0.60 2.30 0.95 2.40 1.85 0.20 1.85 -1.60 0 -1.80 -0.15 -1.80 -1.25z"/>
  <path d="M58 112.25 c0 -1.20 0.05 -1.25 1.60 -0.60 2.30 0.95 2.40 1.85 0.20 1.85 -1.60 0 -1.80 -0.15 -1.80 -1.25z"/>
  <path d="M50.80 105.95 c-0.15 -0.85 -0.30 -2.45 -0.30 -3.50 0 -1.60 0.15 -1.95 1 -1.95 0.85 0 1 0.35 1 2.20 0 1.25 0.20 2.80 0.50 3.50 0.45 1.15 0.35 1.30 -0.70 1.30 -0.90 0 -1.25 -0.35 -1.50 -1.55z"/>
  <path d="M44.15 98.25 c0.30 -0.95 0.80 -1.75 1.20 -1.75 0.40 0 0.65 0.65 0.65 1.75 0 1.50 -0.15 1.75 -1.20 1.75 -1.15 0 -1.20 -0.10 -0.65 -1.75z"/>
  <path d="M53.50 94.30 c0 -1.60 0.15 -1.80 1.25 -1.80 1.20 0 1.25 0.05 0.60 1.60 -0.95 2.30 -1.85 2.40 -1.85 0.20z"/>
  <path d="M55.50 89.30 c0 -1.60 0.15 -1.80 1.25 -1.80 1.20 0 1.25 0.05 0.60 1.60 -0.95 2.30 -1.85 2.40 -1.85 0.20z"/>
  <path d="M57.50 84.30 c0 -1.60 0.15 -1.80 1.25 -1.80 1.20 0 1.25 0.05 0.60 1.60 -0.95 2.30 -1.85 2.40 -1.85 0.20z"/>
  <path d="M81.65 80.40 c-2.05 -0.65 -2.20 -1.90 -0.25 -1.90 2.35 0 3.60 0.55 3.60 1.55 0 1.05 -0.85 1.15 -3.35 0.35z"/>
  <path d="M68.90 76.65 c-1.65 -0.40 -1 -1.65 0.85 -1.65 1.40 0 1.75 0.20 1.75 1 0 1 -0.70 1.15 -2.60 0.65z"/>
  <path d="M57.55 62.75 c0.60 -0.95 1.25 -1.75 1.50 -1.75 0.25 0 0.45 0.80 0.45 1.75 0 1.60 -0.10 1.75 -1.50 1.75 l-1.45 0 1 -1.75z"/>
 </g>
 <g fill="#ea8300">
  <path d="M60.50 129.65 c-1.25 -4.30 -3.60 -6.10 -12.75 -9.70 -9.20 -3.60 -10.35 -4.25 -12.30 -7.35 -1.20 -1.85 -1.45 -2.80 -1.40 -5.05 0.05 -2.75 0.05 -2.80 0.50 -0.90 0.70 2.90 1.75 4.65 3.55 5.75 1.50 0.95 15.35 6.90 19.35 8.35 2.90 1.05 4.90 3 5.80 5.70 0.45 1.40 0.70 2.75 0.50 3.05 -0.15 0.25 0.15 0.50 0.70 0.50 0.60 0 1.05 0.20 1.05 0.40 0 0.85 -1.25 1.60 -2.75 1.60 -1.40 0 -1.60 -0.20 -2.25 -2.35z"/>
  <path d="M68 130.85 c0 -0.40 0.45 -0.85 1 -1 0.70 -0.20 1 -0.70 1 -1.70 0 -2.80 3.75 -12.45 6.70 -17.40 4.50 -7.45 9.30 -12.65 16.30 -17.60 6.45 -4.60 11.20 -6.80 19.50 -9.05 4.15 -1.10 5.80 -1.25 13 -1.30 5.15 -0.05 9.40 0.20 11.25 0.60 4.05 0.90 12.75 3.70 13.05 4.20 0.15 0.20 0.70 0.40 1.25 0.40 0.70 0 0.95 0.35 0.95 1.40 0 0.75 0.15 2.20 0.30 3.20 l0.35 1.90 -3.25 -1.45 c-1.80 -0.85 -5.35 -2.10 -7.95 -2.90 -4.40 -1.25 -5.30 -1.35 -14.20 -1.40 -8.95 0 -9.80 0.10 -14.50 1.40 -19 5.40 -33.55 19.75 -38.75 38.10 l-0.85 3 -2.55 0.15 c-2 0.10 -2.60 0 -2.60 -0.55z"/>
  <path d="M61.30 118.75 c-0.75 -0.40 -1.65 -0.75 -2 -0.75 -1.05 0 -5.80 -2.45 -5.80 -3 0 -1.20 5.95 0.20 7.05 1.70 0.20 0.20 1.60 0.45 3.10 0.50 2.30 0.05 2.95 -0.15 3.75 -1.05 0.75 -0.95 1.10 -1 1.75 -0.50 0.65 0.50 0.70 0.75 0.20 1.35 -1.90 2.45 -5.30 3.20 -8.05 1.75z"/>
  <path d="M45.60 110.75 c-2.95 -2.65 -3.65 -4.25 -1.80 -4.25 1.05 0 1.20 0.25 1.20 1.75 0 1.65 0.10 1.75 1.75 1.75 1.60 0 1.75 0.10 1.75 1.50 0 0.85 -0.10 1.50 -0.20 1.50 -0.10 0 -1.30 -1 -2.70 -2.25z"/>
  <path d="M42.75 102.65 c0.60 -3.30 2.25 -5.10 2.25 -2.45 0 2.70 -0.60 4.30 -1.60 4.30 -0.90 0 -0.95 -0.20 -0.65 -1.85z"/>
  <path d="M44.50 97.95 c0 -1.45 1.25 -4.45 1.85 -4.45 0.70 0 0.85 1.90 0.35 3.90 -0.30 1.10 -2.20 1.60 -2.20 0.55z"/>
  <path d="M81.05 94.65 c0.10 -0.30 1.55 -3.20 3.20 -6.40 2.80 -5.40 2.95 -5.85 2.10 -6.45 -0.80 -0.65 -0.75 -0.90 0.90 -4.80 1.90 -4.45 2.15 -6.75 1 -9.05 -0.85 -1.60 -3.45 -3.45 -4.85 -3.45 -0.50 0 -0.90 -0.20 -0.90 -0.50 0 -0.25 -0.60 -0.50 -1.35 -0.50 -1.80 0 -12.85 -3.05 -13.05 -3.60 -0.10 -0.20 -0.75 -0.40 -1.50 -0.40 -2.90 0 -8.65 -2.10 -11.35 -4.10 -2.80 -2.05 -3.70 -3.05 -1.60 -1.70 1.10 0.70 6.50 2.35 23.60 7 4.70 1.30 9.20 2.60 10 2.95 0.85 0.30 1.75 0.60 2 0.65 0.55 0.10 5.55 1.45 12.50 3.45 2.50 0.65 6.30 1.70 8.50 2.25 6.20 1.60 6.85 1.95 6.65 3.45 -0.15 1.40 -1.20 1.85 -6.90 3.05 -11.15 2.35 -23.05 9.45 -27.65 16.50 -0.80 1.25 -1.40 2 -1.30 1.65z"/>
  <path d="M45.15 90.25 c-0.55 -1.65 -0.50 -1.75 0.65 -1.75 1.05 0 1.20 0.25 1.20 1.75 0 1.10 -0.25 1.75 -0.65 1.75 -0.40 0 -0.90 -0.80 -1.20 -1.75z"/>
  <path d="M43.20 86.95 c-0.50 -0.60 -1.55 -1.35 -2.30 -1.75 -1.90 -1 -1.75 -1.70 0.35 -1.70 0.95 0 1.75 0.25 1.75 0.50 0 0.30 0.35 0.50 0.75 0.50 0.50 0 0.75 0.55 0.75 1.75 0 2.05 -0.05 2.10 -1.30 0.70z"/>
  <path d="M130.75 72.75 c-2.20 -0.65 -5.85 -1.65 -8.10 -2.25 -2.70 -0.70 -4.15 -1.35 -4.15 -1.80 0 -1 0.55 -0.90 7.25 1 3.30 0.95 6.95 1.95 8.15 2.30 1.25 0.30 2.10 0.85 2.10 1.25 0 0.95 -0.45 0.90 -5.25 -0.50z"/>
  <path d="M127.55 69.10 c-4.55 -1.30 -8.30 -2.65 -8.45 -2.95 -0.25 -0.90 1 -0.80 4.85 0.30 1.80 0.50 5.20 1.45 7.55 2.05 4.45 1.20 5.65 1.80 5.20 2.55 -0.35 0.60 0.20 0.70 -9.15 -1.95z"/>
  <path d="M128.40 66.55 c-5.25 -1.40 -8.40 -2.50 -8.40 -2.90 0 -0.35 0.30 -0.65 0.65 -0.65 0.95 0 16.35 4.35 16.70 4.70 0.20 0.15 0.10 0.50 -0.15 0.75 -0.25 0.20 -4.15 -0.60 -8.80 -1.90z"/>
  <path d="M132.75 65 c-2.75 -0.75 -6.50 -1.75 -8.35 -2.25 -2.10 -0.55 -3.40 -1.15 -3.40 -1.55 0 -1 0.45 -0.95 8.75 1.35 7.60 2.10 8.50 2.50 8.20 3.35 -0.10 0.30 -2.30 -0.10 -5.20 -0.90z"/>
 </g>
 <g fill="#6d6864">
  <path d="M118.30 185.15 c-0.20 -0.45 -0.20 -0.70 0 -0.50 0.20 0.20 0.85 -0.05 1.40 -0.50 l1.05 -0.90 -1 1.25 c-0.55 0.70 -1 1.30 -1.05 1.40 -0.05 0.10 -0.25 -0.25 -0.40 -0.75z"/>
  <path d="M94.50 172.60 c0.05 -0.20 0.50 -1.15 1.05 -2.10 0.70 -1.30 0.90 -1.40 0.65 -0.50 -0.20 0.70 -0.35 1.50 -0.35 1.85 0 0.35 -0.30 0.70 -0.70 0.85 -0.35 0.15 -0.65 0.10 -0.65 -0.10z"/>
  <path d="M92.50 167.50 c0.55 -1.10 1.15 -2 1.30 -2 0.10 0 0 0.45 -0.30 0.95 -0.75 1.45 -0.65 1.55 1.15 1.60 1.30 0 1.40 0.10 0.60 0.40 -0.55 0.20 -1.65 0.55 -2.40 0.75 l-1.40 0.35 1.05 -2.05z"/>
  <path d="M90.10 163.80 c0.65 -0.95 1.20 -1.65 1.30 -1.55 0.10 0.10 -0.20 0.75 -0.65 1.40 -0.75 1.20 -0.75 1.30 0.10 1.50 0.60 0.15 0.40 0.25 -0.50 0.30 l-1.35 0.05 1.10 -1.70z"/>
  <path d="M87.45 160.60 c0.25 -0.45 0.95 -1.30 1.60 -1.85 l1.15 -1 -1.10 1.60 -1.10 1.60 1.35 0.20 c1.15 0.15 1.05 0.20 -0.50 0.30 -1.65 0.05 -1.85 -0.05 -1.40 -0.85z"/>
  <path d="M85.35 151.45 c0.60 -0.60 1.25 -1 1.40 -0.85 0.15 0.15 -0.35 0.65 -1.10 1.15 l-1.40 0.85 1.10 -1.15z"/>
  <path d="M84.50 148.55 c-0.40 -0.30 -0.90 -0.35 -1.20 -0.20 -0.25 0.15 -0.30 0.05 -0.15 -0.20 0.20 -0.30 1.20 -1.05 2.20 -1.60 l1.90 -1.05 -1.50 1.20 -1.45 1.25 1.20 0.50 c0.70 0.25 0.90 0.50 0.50 0.50 -0.40 0 -1.10 -0.15 -1.50 -0.40z"/>
  <path d="M123.90 148.20 c-3.20 -1.70 -3.90 -6.55 -1.40 -9.35 2.45 -2.85 6.35 -2.95 9.05 -0.25 1.25 1.25 1.45 1.85 1.45 4.10 0 1.50 -0.30 3.05 -0.80 3.70 -1.70 2.45 -5.60 3.30 -8.30 1.80z m4.55 -4.40 c1.10 -1.30 -0.50 -3.15 -2.20 -2.50 -0.75 0.30 -1.05 2.25 -0.40 2.85 0.55 0.60 2 0.40 2.60 -0.35z"/>
  <path d="M84.10 144.05 c-1.30 -0.75 -1.45 -1 -0.75 -1.20 0.50 -0.10 1.35 -0.40 1.90 -0.60 0.70 -0.20 0.65 -0.10 -0.20 0.40 l-1.20 0.75 1.45 0.75 c0.80 0.45 1.25 0.80 0.95 0.80 -0.25 0 -1.25 -0.40 -2.15 -0.90z"/>
  <path d="M84.85 140.05 c-1.70 -1.10 -2.15 -1.55 -1.55 -1.55 0.25 0 1.15 0.55 1.95 1.25 1.75 1.40 1.60 1.55 -0.40 0.30z"/>
  <path d="M86.65 138.15 c0.45 -0.10 1.25 -0.10 1.75 0 0.45 0.15 0.05 0.25 -0.90 0.25 -0.95 0 -1.35 -0.10 -0.85 -0.25z"/>
  <path d="M65 137 c0 -0.90 0.35 -1 2.75 -1 2.10 0 2.75 -0.15 2.75 -0.75 0 -0.40 0.45 -0.75 1 -0.75 1.05 0 1.20 0.50 0.70 2.25 -0.20 0.85 -0.75 1 -3.75 1.10 -3.15 0.10 -3.45 0.05 -3.45 -0.85z"/>
  <path d="M71.50 131.25 c0 -0.95 0.25 -1.25 1.05 -1.25 0.75 0 0.95 0.20 0.75 0.80 -0.15 0.45 -0.30 1 -0.30 1.25 0 0.25 -0.35 0.45 -0.75 0.45 -0.45 0 -0.75 -0.45 -0.75 -1.25z"/>
  <path d="M61 131.15 c0 -0.75 0.55 -0.95 2.75 -1.05 2.50 -0.15 2.75 -0.05 2.75 0.90 0 0.90 -0.30 1 -2.75 1 -2.30 0 -2.75 -0.15 -2.75 -0.85z"/>
  <path d="M67.50 131 c0 -0.80 0.35 -1 1.75 -1 1.40 0 1.75 0.20 1.75 1 0 0.80 -0.35 1 -1.75 1 -1.40 0 -1.75 -0.20 -1.75 -1z"/>
  <path d="M64 118.50 c0 -0.80 0.35 -1 1.75 -1 1.95 0 2.30 0.70 0.80 1.50 -1.55 0.80 -2.55 0.60 -2.55 -0.50z"/>
  <path d="M52 114.70 c-6.35 -3.05 -9.50 -6.25 -9.50 -9.70 0 -0.85 0.60 -3.30 1.35 -5.50 1.45 -4.25 2.65 -5.30 2.65 -2.25 0 0.95 -0.15 1.75 -0.40 1.75 -0.45 0 -1.60 4.75 -1.60 6.65 0 0.75 0.25 1.35 0.50 1.35 0.30 0 0.50 0.55 0.50 1.25 0 1 0.25 1.25 1.25 1.25 0.80 0 1.25 0.30 1.25 0.75 0 0.40 0.35 0.75 0.75 0.75 0.95 0 4.25 1.60 4.25 2.05 0 0.15 0.70 0.45 1.50 0.65 1.20 0.20 1.50 0.55 1.50 1.55 0 0.70 -0.05 1.25 -0.15 1.25 -0.05 0 -1.80 -0.80 -3.85 -1.80z"/>
  <path d="M65.50 115.25 c0 -1.20 0.05 -1.25 1.60 -0.60 2.30 0.95 2.40 1.85 0.20 1.85 -1.60 0 -1.80 -0.15 -1.80 -1.25z"/>
  <path d="M60.50 113.25 c0 -1.20 0.05 -1.25 1.60 -0.60 2.30 0.95 2.40 1.85 0.20 1.85 -1.60 0 -1.80 -0.15 -1.80 -1.25z"/>
  <path d="M55.50 111.25 c0 -1.45 0.10 -1.50 2 -0.50 2 1.05 1.90 1.75 -0.25 1.75 -1.55 0 -1.75 -0.15 -1.75 -1.25z"/>
  <path d="M50.50 103 c0 -2.85 0.05 -3 1.25 -3 1.10 0 1.20 0.10 0.75 1.30 -0.30 0.75 -0.40 2.10 -0.20 3 0.25 1.50 0.20 1.70 -0.75 1.70 -0.95 0 -1.05 -0.30 -1.05 -3z"/>
  <path d="M52 97.80 c0 -1.60 0.15 -1.80 1.25 -1.80 1.20 0 1.25 0.05 0.60 1.60 -0.95 2.30 -1.85 2.40 -1.85 0.20z"/>
  <path d="M45.50 92.60 c0 -2.95 -1.95 -6.20 -4.35 -7.35 -1.90 -0.90 -1.85 -0.75 -0.95 -3 1.05 -2.40 1.80 -2.20 1.80 0.50 0 2.20 0.05 2.25 1.55 2.25 1.10 0 1.60 0.25 1.80 1 0.15 0.55 0.45 1 0.70 1 0.25 0 0.45 0.70 0.45 1.50 0 0.85 0.25 1.50 0.50 1.50 0.30 0 0.50 1.15 0.50 2.50 0 2.15 -0.15 2.50 -1 2.50 -0.85 0 -1 -0.35 -1 -2.40z"/>
  <path d="M59 80.75 c0 -0.95 0.20 -1.75 0.45 -1.75 0.25 0 0.55 -0.45 0.70 -1 0.20 -0.75 0.70 -1 2.10 -1 l1.85 0 -2.05 2.30 c-1.15 1.30 -2.05 2.55 -2.05 2.75 0 0.25 -0.20 0.45 -0.50 0.45 -0.25 0 -0.50 -0.80 -0.50 -1.75z"/>
  <path d="M85.15 81.40 c-2.25 -0.75 -2.15 -1.90 0.10 -1.90 1.55 0 1.75 0.15 1.75 1.25 0 0.70 -0.05 1.25 -0.10 1.20 -0.10 -0.05 -0.90 -0.30 -1.75 -0.55z"/>
  <path d="M73.40 77.85 c-3.70 -1.15 -4.55 -2.35 -1.65 -2.35 0.95 0 1.75 0.25 1.75 0.50 0 0.30 0.80 0.50 1.75 0.50 1.55 0 1.75 0.15 1.75 1.25 0 0.70 -0.05 1.20 -0.10 1.20 -0.10 -0.05 -1.65 -0.55 -3.50 -1.10z"/>
  <path d="M87.50 77.30 c0 -0.95 0.25 -1.80 0.50 -1.90 0.30 -0.10 0.65 -1.80 0.85 -3.80 0.20 -2.40 0.50 -3.60 0.95 -3.60 1.55 0 1.35 4.80 -0.35 8.90 -1.10 2.55 -1.95 2.70 -1.95 0.40z"/>
  <path d="M45 74 c1.55 -2.20 2 -2.25 2 -0.30 0 1.65 -0.10 1.80 -1.55 1.80 l-1.50 0 1.05 -1.50z"/>
  <path d="M131.65 72.85 c-2.35 -0.65 -3.65 -1.25 -3.65 -1.70 0 -0.45 0.35 -0.60 0.90 -0.45 0.45 0.10 2.25 0.60 4 1.10 2.85 0.75 3.70 1.35 2.75 1.85 -0.25 0.10 -2.05 -0.30 -4 -0.80z"/>
  <path d="M121.65 70.15 c-1.55 -0.45 -2.65 -1.05 -2.65 -1.45 0 -0.75 0.45 -0.70 4.65 0.55 2.10 0.60 3.15 1.80 1.50 1.70 -0.50 0 -2.10 -0.40 -3.50 -0.80z"/>
  <path d="M131.30 70.05 c-1.65 -0.45 -3.10 -1.15 -3.20 -1.45 -0.10 -0.35 -0.65 -0.65 -1.25 -0.65 -0.65 -0.05 -0.80 -0.15 -0.35 -0.25 1.15 -0.30 9.15 2 9.40 2.70 0.25 0.80 -1.05 0.70 -4.60 -0.35z"/>
  <path d="M50.25 69 c0.15 -0.25 0.95 -0.95 1.75 -1.50 l1.50 -1.05 0 1.50 c0 1.45 -0.15 1.55 -1.80 1.55 -1 0 -1.65 -0.20 -1.45 -0.50z"/>
  <path d="M134 68 c-0.70 -0.20 -3.50 -1 -6.20 -1.75 -2.75 -0.75 -5.30 -1.65 -5.70 -2.05 -0.35 -0.40 -1.05 -0.70 -1.45 -0.70 -0.45 0 -0.70 -0.15 -0.50 -0.30 0.15 -0.15 3.70 0.65 7.95 1.80 9.95 2.70 9.40 2.50 9.40 3.05 0 0.55 -1.75 0.55 -3.50 -0.05z"/>
  <path d="M121.40 67.40 c-1.05 -0.30 -1.90 -0.80 -1.90 -1.20 0 -0.85 0.20 -0.85 2.95 0 1.25 0.35 2.35 0.90 2.45 1.20 0.20 0.70 -0.90 0.70 -3.50 0z"/>
  <path d="M128.55 63.80 c-4.25 -1.15 -7.85 -2.40 -7.95 -2.70 -0.10 -0.35 0.10 -0.60 0.45 -0.60 1.55 0 15.70 4.15 16.35 4.80 1.05 1.10 -0.25 0.85 -8.85 -1.50z"/>
  <path d="M81.40 64.10 c-2.25 -0.60 -2.90 -1 -2.90 -1.75 0 -0.80 0.25 -0.90 1.65 -0.65 3.05 0.55 7 2.05 7.25 2.70 0.25 0.85 -2.40 0.70 -6 -0.30z"/>
  <path d="M70.40 61.15 c-0.50 -0.10 -0.90 -0.45 -0.90 -0.70 0 -0.25 -0.80 -0.45 -1.75 -0.45 -1.40 0 -1.75 -0.20 -1.75 -1 0 -1.25 0.25 -1.25 4.80 0.10 2.25 0.65 3.70 1.30 3.70 1.75 0 0.65 -2.20 0.80 -4.10 0.30z"/>
  <path d="M60.50 57.50 c0 -1.05 0.50 -1.20 2.40 -0.70 1.80 0.50 1.35 1.70 -0.65 1.70 -1.40 0 -1.75 -0.20 -1.75 -1z"/>
  <path d="M54.30 54.75 c-0.55 -0.40 -0.75 -0.75 -0.50 -0.75 0.30 0 0.95 0.35 1.50 0.75 0.50 0.40 0.75 0.70 0.45 0.70 -0.25 0 -0.95 -0.30 -1.45 -0.70z"/>
 </g>
 <g fill="#515151">
  <path d="M123.40 147.95 c-0.50 -0.25 -1.15 -1 -1.45 -1.60 -0.50 -0.90 -0.30 -0.85 1.10 0.40 0.95 0.85 1.80 1.55 1.90 1.65 0.10 0.05 0 0.10 -0.25 0.10 -0.25 0 -0.85 -0.25 -1.30 -0.55z"/>
  <path d="M129.05 148.40 c0.10 -0.10 0.95 -0.80 1.90 -1.65 1.40 -1.25 1.60 -1.30 1.10 -0.40 -0.55 1.05 -2 2.15 -2.85 2.15 -0.20 0 -0.25 -0.05 -0.15 -0.10z"/>
  <path d="M125.50 146.20 c-3.35 -1.75 -2.20 -7.20 1.55 -7.20 1.75 0 3.95 2.25 3.95 4 0 2.35 -3.35 4.30 -5.50 3.20z"/>
  <path d="M52.15 114.70 c-2.15 -1.05 -2.10 -1.70 0.10 -1.70 1.55 0 1.75 0.15 1.75 1.25 0 0.70 -0.05 1.25 -0.10 1.25 -0.10 0 -0.90 -0.40 -1.75 -0.80z"/>
  <path d="M54.50 110.50 l0 -1.50 1.75 1.10 c2.20 1.45 2.20 1.90 0 1.90 -1.60 0 -1.75 -0.10 -1.75 -1.50z"/>
  <path d="M45 96.90 c0 -1.50 0.65 -2.90 1.30 -2.90 0.45 0 0.70 0.60 0.70 1.75 0 1.40 -0.20 1.75 -1 1.75 -0.55 0 -1 -0.30 -1 -0.60z"/>
  <path d="M45.70 92.55 c0.20 -0.25 0.10 -1.05 -0.20 -1.75 -0.45 -1.20 -0.35 -1.30 0.75 -1.30 1.10 0 1.25 0.20 1.25 1.75 0 1.45 -0.20 1.75 -1.05 1.75 -0.55 0 -0.90 -0.20 -0.75 -0.45z"/>
  <path d="M77.80 79.10 c-3.05 -1.05 -3.60 -2.10 -1.10 -2.10 1 0 1.80 0.25 1.80 0.50 0 0.30 0.80 0.50 1.75 0.50 1.40 0 1.75 0.20 1.75 1 0 1.20 -0.85 1.25 -4.20 0.10z"/>
  <path d="M42 78.70 c0 -0.60 1.70 -3.20 2.10 -3.20 0.20 0 0.40 0.80 0.40 1.75 0 1.55 -0.15 1.75 -1.25 1.75 -0.70 0 -1.25 -0.15 -1.25 -0.30z"/>
  <path d="M48.25 70.50 c0.15 -0.25 0.95 -0.95 1.75 -1.50 l1.50 -1.05 0 1.50 c0 1.45 -0.15 1.55 -1.80 1.55 -1 0 -1.65 -0.20 -1.45 -0.50z"/>
  <path d="M127.15 68.85 c-0.90 -0.30 -1.65 -0.80 -1.65 -1.15 0 -0.45 0.40 -0.50 1.55 -0.20 1.80 0.55 2.15 0.75 1.90 1.35 -0.10 0.25 -0.90 0.25 -1.80 0z"/>
  <path d="M53 67.70 c0 -0.90 1.90 -2.65 2.90 -2.70 0.35 0 0.60 0.65 0.60 1.75 0 1.65 -0.10 1.75 -1.75 1.75 -1.25 0 -1.75 -0.20 -1.75 -0.80z"/>
  <path d="M127.65 63.40 c-2.15 -0.55 -2.20 -1.65 -0.05 -1.20 1.80 0.35 2.10 0.55 1.85 1.20 -0.15 0.25 -0.90 0.25 -1.80 0z"/>
  <path d="M58.15 58.75 c-0.55 -1.65 -0.50 -1.75 0.65 -1.75 1.05 0 1.20 0.25 1.20 1.75 0 1.10 -0.25 1.75 -0.65 1.75 -0.40 0 -0.90 -0.80 -1.20 -1.75z"/>
  <path d="M55.50 55.45 l-1.25 -1 1.25 0.35 c1.55 0.40 1.65 0.50 1.45 1.15 -0.10 0.25 -0.75 0.05 -1.45 -0.50z"/>
 </g>
 <g fill="#47423f">
  <path d="M63.50 137.65 c-2.30 -0.85 -3.45 -3.65 -1.50 -3.65 0.55 0 1 0.30 1 0.70 0 0.75 1.50 1.30 3.65 1.30 1.65 0 1.85 1.25 0.25 1.70 -1.35 0.35 -2.35 0.35 -3.40 -0.05z"/>
  <path d="M70.50 135.75 c0 -1.40 0.20 -1.75 1 -1.75 1.05 0 1.20 0.50 0.70 2.40 -0.50 1.80 -1.70 1.35 -1.70 -0.65z"/>
  <path d="M63.50 131.30 c0 -0.85 1.85 -1.30 5.40 -1.25 2.20 0.05 2.60 0.20 2.60 1 0 0.85 -0.40 0.95 -4 0.95 -3.10 0 -4 -0.15 -4 -0.70z"/>
  <path d="M59.75 118.10 c-6.30 -2.60 -12.75 -6.10 -14.75 -8.10 -2.80 -2.80 -3 -4.55 -1.10 -10.20 0.85 -2.50 1.65 -5.40 1.80 -6.45 0.40 -2.70 -1.30 -6.05 -3.90 -7.75 -1.15 -0.70 -2.15 -1.35 -2.25 -1.40 -0.05 -0.10 0.65 -1.80 1.65 -3.85 2.50 -5.20 5.50 -8.65 11.40 -13.20 3.90 -2.95 5.20 -4.30 5.60 -5.50 0.50 -1.75 1.80 -2.25 1.80 -0.75 0 0.85 0.60 1 5.90 1.25 4.10 0.20 6.65 0.60 8.50 1.35 1.40 0.55 3.80 1.45 5.25 2 3.30 1.25 4.85 3.10 4.85 5.80 0 3.05 -1.45 4.20 -5.30 4.20 -1.70 0 -4.10 -0.40 -5.70 -1 -4.40 -1.60 -9.60 -1.05 -11.50 1.20 -0.55 0.70 -0.40 0.80 0.95 0.80 1.95 0 1.95 0.55 0.05 1.65 -0.80 0.50 -1.55 1.20 -1.55 1.50 -0.05 0.35 -0.25 -0.30 -0.40 -1.40 l-0.30 -2 -1.90 3.85 c-1.05 2.10 -2.10 4.45 -2.30 5.25 -0.25 0.75 -0.60 1.80 -0.80 2.30 -0.25 0.65 -0.10 0.85 0.70 0.85 1 0 1 0.10 0.40 1.60 -0.75 1.80 -1.85 2.45 -1.85 1.05 -0.05 -0.70 -0.15 -0.65 -0.75 0.35 -0.95 1.65 -0.90 1.90 0.20 2.10 0.85 0.15 0.80 0.40 -0.65 4.10 -1.65 4.05 -2.55 5.10 -2.95 3.45 -0.15 -0.50 -0.25 0.10 -0.25 1.35 -0.05 2.55 1.10 4.85 3 5.95 0.70 0.45 1.80 1.15 2.45 1.60 0.65 0.45 3.95 1.90 7.35 3.25 6.50 2.55 6.95 3 4.60 4.80 -2.10 1.55 -4.35 1.55 -8.25 0z"/>
  <path d="M86.15 81.65 c-1.15 -0.45 -0.70 -1.65 0.60 -1.65 1.35 0 1.40 0.05 0.95 1.20 -0.30 0.85 -0.55 0.90 -1.55 0.45z"/>
  <path d="M77.90 79.15 c-1.65 -0.40 -1 -1.65 0.85 -1.65 1.40 0 1.75 0.20 1.75 1 0 1 -0.70 1.15 -2.60 0.65z"/>
  <path d="M88.65 71.90 c0.05 -2.85 -0.10 -4.15 -0.50 -4.25 -0.35 -0.15 -0.65 -1.05 -0.65 -2 0 -1.55 0.10 -1.70 0.80 -1.10 1 0.85 2 2.80 2.35 4.85 0.45 2.15 -0.55 6.60 -1.40 6.60 -0.55 0 -0.65 -0.95 -0.60 -4.10z"/>
  <path d="M126.30 71.30 c-4.10 -1.15 -7.55 -2.35 -7.70 -2.70 -0.10 -0.35 -0.05 -0.60 0.10 -0.60 1 0 16.60 4.60 17 5 0.95 0.95 -1.85 0.45 -9.40 -1.70z"/>
  <path d="M131.50 70 c-1.80 -0.50 -5.20 -1.45 -7.65 -2.10 -2.40 -0.60 -4.35 -1.35 -4.35 -1.65 0.05 -0.25 0.45 -0.50 0.90 -0.45 1.55 0.10 15.80 4.20 16.30 4.70 0.75 0.75 -1.50 0.55 -5.20 -0.50z"/>
  <path d="M128.05 66.30 c-4.25 -1.15 -7.85 -2.40 -7.95 -2.70 -0.10 -0.35 -0.05 -0.60 0.15 -0.60 1.25 0 15.60 4.30 16.15 4.80 1 1 0.40 0.90 -8.35 -1.50z"/>
  <path d="M128.55 63.70 c-4.25 -1.20 -7.80 -2.30 -7.95 -2.45 -0.90 -0.90 1.10 -0.65 6.25 0.75 10.35 2.80 11.15 3.05 11.15 3.55 0 0.75 -1.30 0.50 -9.45 -1.85z"/>
  <path d="M81.50 64 c0 -0.25 -0.65 -0.50 -1.50 -0.50 -2.65 0 -7 -1.60 -7 -2.60 0 -1.20 0.15 -1.15 6.55 0.70 3.45 1 5.45 1.80 5.45 2.25 0 0.40 -0.60 0.65 -1.75 0.65 -0.95 0 -1.75 -0.20 -1.75 -0.50z"/>
  <path d="M67.50 60 c0 -0.25 -0.80 -0.50 -1.75 -0.50 -1.40 0 -1.75 -0.20 -1.75 -1 0 -1.20 0.20 -1.20 4 -0.15 3.40 0.90 4.10 2.15 1.25 2.15 -0.95 0 -1.75 -0.20 -1.75 -0.50z"/>
  <path d="M56.35 56.40 c-1 -1.10 -1.50 -1.85 -1.05 -1.70 0.40 0.15 2.45 0.80 4.50 1.35 4.50 1.35 5.05 2.50 1.10 2.40 -2.40 -0.10 -2.85 -0.25 -4.55 -2.05z"/>
 </g>
 <g fill="#35322d">
  <path d="M63.20 137.30 c-1.80 -0.80 -2.20 -1.60 -2.20 -4.50 l0 -2.15 5.90 -0.30 c3.20 -0.10 5.95 -0.15 6.05 -0.05 0.10 0.10 -0.05 1.75 -0.40 3.70 l-0.65 3.50 -2.55 0 c-1.45 0 -3.05 0.10 -3.60 0.25 -0.55 0.15 -1.70 -0.05 -2.55 -0.45z"/>
  <path d="M65.30 118.65 c0.90 -0.10 2 -0.65 2.45 -1.15 0.85 -0.95 0.80 -1 -0.55 -1.55 -0.80 -0.35 -2.40 -1 -3.55 -1.50 -1.20 -0.55 -2.45 -0.95 -2.85 -0.95 -0.40 0 -0.90 -0.25 -1.05 -0.50 -0.20 -0.30 -0.50 -0.40 -0.75 -0.25 -0.60 0.35 -4 -1.30 -3.70 -1.85 0.15 -0.20 -0.05 -0.25 -0.45 -0.10 -1.10 0.40 -3.95 -1.40 -4.90 -3.15 -1.35 -2.35 -1.65 -5.60 -0.80 -7.90 0.45 -1.10 1.50 -3.90 2.35 -6.25 0.90 -2.35 2.15 -5.80 2.85 -7.75 3.95 -11.20 6.70 -13.90 14.15 -13.85 2.60 0 4.60 0.35 6.50 1.05 3.60 1.40 5.55 1.35 6.90 -0.10 0.60 -0.65 1.10 -1.35 1.10 -1.65 0 -1.15 -2.50 -3.30 -4.85 -4.20 -1.45 -0.55 -3.85 -1.45 -5.25 -2.05 -2.05 -0.80 -4 -1.05 -8.55 -1.20 -5.70 -0.15 -5.90 -0.10 -7.55 1.20 -0.95 0.70 -3.10 2.30 -4.80 3.50 -4.10 2.95 -7.70 7.05 -9.80 11.25 -1.85 3.70 -2.10 4.80 -1.05 4.80 0.35 0 1.45 0.80 2.40 1.80 l1.70 1.85 -2.35 -1.80 c-1.30 -0.95 -2.60 -1.85 -2.95 -1.95 -0.90 -0.30 2.50 -7 5.30 -10.55 1.25 -1.60 4.40 -4.45 7 -6.35 2.60 -1.95 5.05 -4 5.50 -4.60 1.45 -2.10 0.70 -5.35 -1.75 -7.25 -0.90 -0.75 -0.05 -0.85 1.60 -0.20 0.65 0.25 2.05 0.70 3.15 1 1.10 0.30 5.60 1.60 10 2.85 4.40 1.25 8.80 2.50 9.75 2.70 7.35 1.75 7.95 2.10 9.20 4.65 0.45 0.95 0.80 2.90 0.80 4.30 0 3.90 -2.70 10.95 -4.05 10.60 -0.40 -0.10 -3.95 -1.15 -7.95 -2.35 -4 -1.25 -8.20 -2.35 -9.35 -2.55 -2.70 -0.35 -6.30 0.90 -7.60 2.75 -0.95 1.35 -7.45 16.75 -8.95 21.20 -0.65 1.95 -0.65 2.70 -0.15 4.40 1.10 3.70 2.85 5.05 10.25 8 3.75 1.45 6.80 2.95 6.80 3.30 0 1 -2.80 2.70 -4.35 2.60 -1.40 -0.05 -1.35 -0.05 0.15 -0.25z"/>
  <path d="M54.70 115.75 c-0.90 -0.65 -0.90 -0.70 0.20 -0.40 0.60 0.15 1.25 0.45 1.40 0.70 0.40 0.70 -0.50 0.55 -1.60 -0.30z"/>
  <path d="M49.85 113.45 c-1.60 -0.80 -3.80 -2.40 -4.85 -3.45 -1.90 -1.90 -2 -2.15 -2 -5.10 0.05 -1.75 0.35 -3.80 0.80 -4.65 0.60 -1.25 0.65 -1.25 0.40 -0.25 -0.20 0.70 -0.45 2.65 -0.55 4.35 -0.25 3.05 -0.20 3.15 1.70 5.15 1.05 1.10 3.35 2.80 5.15 3.75 1.80 0.95 3.05 1.70 2.75 1.70 -0.25 0 -1.80 -0.65 -3.40 -1.50z"/>
  <path d="M46.10 93 c0 -0.95 0.10 -1.35 0.25 -0.85 0.10 0.45 0.10 1.25 0 1.75 -0.15 0.45 -0.25 0.05 -0.25 -0.90z"/>
  <path d="M132.75 72.95 c-0.80 -0.30 -4.05 -1.15 -7.20 -2 -5.90 -1.55 -7.50 -2.15 -6.75 -2.55 0.35 -0.20 11.95 2.80 11.95 3.10 0 0.05 0.55 0.15 1.25 0.25 1.55 0.20 4 1.15 4 1.50 0 0.40 -1.55 0.25 -3.25 -0.30z"/>
  <path d="M133 70.25 c-1.25 -0.35 -4.50 -1.25 -7.25 -1.95 -6.85 -1.80 -6.90 -1.85 -6.45 -2.30 0.55 -0.50 17.20 3.95 17.20 4.60 0 0.55 -0.75 0.45 -3.50 -0.35z"/>
  <path d="M132.50 67.40 c-1.80 -0.50 -5.25 -1.50 -7.65 -2.15 -4.35 -1.15 -5.25 -1.50 -4.80 -2 0.35 -0.35 16.55 4.15 17.15 4.75 0.75 0.75 -0.90 0.55 -4.70 -0.60z"/>
  <path d="M135 65.40 c-0.95 -0.30 -3.10 -0.90 -4.75 -1.40 -1.65 -0.50 -4.55 -1.30 -6.40 -1.75 -1.85 -0.50 -3.20 -1.10 -2.95 -1.35 0.20 -0.20 2.30 0.15 4.60 0.80 2.35 0.65 6.10 1.70 8.40 2.30 2.25 0.60 4.10 1.30 4.10 1.55 0 0.55 -0.70 0.50 -3 -0.15z"/>
 </g>
</svg>